<svg width="133" height="137" viewBox="0 0 133 137" fill="none" xmlns="http://www.w3.org/2000/svg">
<path d="M33.5 35.252L36.5 10.5L49.5 20.5L59.2435 5.14951L75.5 20.5C86.6788 13.8728 104.589 0.573512 104.589 0.573512L100.413 30.4971L131.693 46.4531L99.2164 51.6459L119.184 88.4896L81.4487 76.7142L79.6758 104.569L51.3652 75.6082L23.1653 90.8294L28.9445 71.9613L1.94564 73.5161L23.1403 52.6887L7.92064 35.252L33.5 35.252Z" fill="#FF903F"/>
<path d="M38.9134 46L98.9134 46L91.6845 86L46.1423 86L38.9134 46Z" fill="black"/>
<rect x="82.9134" y="46" width="6" height="17" transform="rotate(-180 82.9134 46)" fill="black"/>
<rect x="60.9134" y="46" width="6" height="17" transform="rotate(-180 60.9134 46)" fill="black"/>
<path d="M24.0851 128.679C30.5755 130.498 37.5305 131.007 43.7468 127.925C48.5458 125.546 50.9698 121.388 51.209 116.098C51.4282 111.248 50.1381 106.725 47.3306 102.719C44.8419 99.1677 40.7464 94.8947 36.1192 94.426C31.0551 93.9131 27.9208 100.045 29.0325 104.369C30.6591 110.694 38.9669 113.368 44.7072 113.054C53.8371 112.555 62.5746 105.954 66.3812 97.7656C68.9098 92.3266 69.1839 86.2263 68.4408 80.3818" stroke="black" stroke-width="4" stroke-linecap="round"/>
</svg>
