<svg width="110" height="109" viewBox="0 0 110 109" fill="none" xmlns="http://www.w3.org/2000/svg">
<circle cx="55.4553" cy="54.4851" r="52.4851" fill="#F7F7FA" stroke="#E8E8ED" stroke-width="4"/>
<path d="M34.0518 38.297L36.0683 23.3174L43.2702 31.2478L51.3363 16.2682L60.2667 28.898C67.9487 24.4923 82.2824 13.5771 82.2824 13.5771L79.1473 33.9021L100.309 45.0525L78.1274 48.2833L91.3789 73.543L61.7071 66.4938L64.2998 84.1168L45.2868 64.144L30.883 76.1864V62.9692L13.3104 65.3189L26.2738 48.2833L15.3269 36.8284L34.0518 38.297Z" fill="#E8E8ED"/>
<path d="M30.9771 52.0215H76.4639L72.639 90.993H35.567L30.9771 52.0215Z" fill="#F5D4BC"/>
<rect x="51.4026" y="52.0215" width="4.63602" height="38.9714" fill="#D4AF95"/>
<mask id="mask0_2004_12234" style="mask-type:alpha" maskUnits="userSpaceOnUse" x="30" y="52" width="47" height="39">
<path d="M30.9771 52.0215H76.4639L72.639 90.993H35.567L30.9771 52.0215Z" fill="#FF903F"/>
</mask>
<g mask="url(#mask0_2004_12234)">
<rect x="75.8206" y="63.126" width="5.25795" height="44.1995" transform="rotate(90 75.8206 63.126)" fill="#D4AF95"/>
</g>
<path d="M51.0505 35.1084L39.0489 42.9195L51.4053 52.0186H53.6143L51.0505 35.1084Z" fill="#D4AF95"/>
<path d="M55.4613 32.7128L53.3497 54.7038L56.0402 52.0246L63.7007 36.516L55.4613 32.7128Z" fill="#D4AF95"/>
<path d="M48.5084 17.9365L48.4303 21.249L46.1021 21.3428L45.5084 28.749L42.2115 28.9209L42.2271 21.5146L39.899 21.6396L39.9928 17.9521L48.5084 17.9365ZM57.7315 28.7959L53.8253 28.9834L53.794 25.6865H51.9971L51.8878 29.1084H48.3878L48.6846 18.124L52.4034 18.2959L52.169 23.9053H53.9034L53.919 18.0303L57.4815 18.124L57.7315 28.7959ZM67.3062 18.1084C67.0718 19.9417 66.8713 21.7673 66.7046 23.585C66.538 25.3975 66.3791 27.223 66.2281 29.0615L63.0249 29.2959L63.1656 28.0928C63.0614 28.2126 62.939 28.3167 62.7984 28.4053C62.663 28.4938 62.5171 28.5667 62.3609 28.624C62.2046 28.6761 62.0432 28.7152 61.8765 28.7412C61.7098 28.762 61.551 28.7699 61.3999 28.7646C61.0458 28.7594 60.7124 28.6917 60.3999 28.5615C60.0874 28.4261 59.801 28.249 59.5406 28.0303C59.2802 27.8063 59.0458 27.5485 58.8374 27.2568C58.6291 26.96 58.452 26.6501 58.3062 26.3271C58.1656 25.999 58.0562 25.6657 57.9781 25.3271C57.9052 24.9886 57.8687 24.6605 57.8687 24.3428C57.8687 23.874 57.8765 23.3896 57.8921 22.8896C57.913 22.3844 57.9468 21.8792 57.9937 21.374C58.0406 20.8688 58.1005 20.3688 58.1734 19.874C58.2515 19.3792 58.3479 18.9053 58.4624 18.4521C59.0979 18.4834 59.7359 18.512 60.3765 18.5381C61.0171 18.5641 61.6552 18.5719 62.2906 18.5615C62.1708 19.0146 62.051 19.4704 61.9312 19.9287C61.8166 20.3818 61.7124 20.8402 61.6187 21.3037C61.5249 21.762 61.4494 22.223 61.3921 22.6865C61.3348 23.1501 61.3062 23.6188 61.3062 24.0928C61.3062 24.2021 61.3114 24.3584 61.3218 24.5615C61.3322 24.7646 61.3583 24.9652 61.3999 25.1631C61.4468 25.361 61.5145 25.5355 61.6031 25.6865C61.6968 25.8324 61.827 25.9053 61.9937 25.9053C62.1916 25.9053 62.3687 25.8219 62.5249 25.6553C62.6812 25.4834 62.8192 25.2542 62.939 24.9678C63.0588 24.6813 63.1604 24.3506 63.2437 23.9756C63.3322 23.6006 63.4052 23.21 63.4624 22.8037C63.5249 22.3923 63.5744 21.9782 63.6109 21.5615C63.6473 21.1449 63.6734 20.7542 63.689 20.3896C63.7098 20.0199 63.7229 19.6891 63.7281 19.3975C63.7385 19.1058 63.7437 18.8792 63.7437 18.7178C63.7437 18.6136 63.7411 18.512 63.7359 18.4131C63.7307 18.3141 63.7229 18.2126 63.7124 18.1084C64.051 18.1188 64.3869 18.1266 64.7203 18.1318C65.0536 18.137 65.3895 18.1396 65.7281 18.1396C65.9885 18.1396 66.2489 18.1396 66.5093 18.1396C66.7749 18.1344 67.0406 18.124 67.3062 18.1084Z" fill="#CECECE"/>
</svg>
