<svg width="110" height="109" viewBox="0 0 110 109" fill="none" xmlns="http://www.w3.org/2000/svg">
<circle cx="55.4553" cy="54.4851" r="52.4851" fill="#F7F7FA" stroke="#E8E8ED" stroke-width="4"/>
<path d="M34.0518 38.297L36.0683 23.3174L43.2702 31.2478L51.3363 16.2682L60.2667 28.898C67.9487 24.4923 82.2824 13.5771 82.2824 13.5771L79.1473 33.9021L100.309 45.0525L78.1274 48.2833L91.3789 73.543L61.7071 66.4938L64.2998 84.1168L45.2868 64.144L30.883 76.1864V62.9692L13.3104 65.3189L26.2738 48.2833L15.3269 36.8284L34.0518 38.297Z" fill="#E8E8ED"/>
<path d="M30.9771 52.0215H76.4639L72.639 90.993H35.567L30.9771 52.0215Z" fill="#F5D4BC"/>
<rect x="51.4026" y="52.0215" width="4.63602" height="38.9714" fill="#D4AF95"/>
<mask id="mask0_2004_12149" style="mask-type:alpha" maskUnits="userSpaceOnUse" x="30" y="52" width="47" height="39">
<path d="M30.9771 52.0215H76.4639L72.639 90.993H35.567L30.9771 52.0215Z" fill="#FF903F"/>
</mask>
<g mask="url(#mask0_2004_12149)">
<rect x="75.8206" y="63.126" width="5.25795" height="44.1995" transform="rotate(90 75.8206 63.126)" fill="#D4AF95"/>
</g>
<path d="M51.0505 35.1084L39.0489 42.9195L51.4053 52.0186H53.6143L51.0505 35.1084Z" fill="#D4AF95"/>
<path d="M55.4613 32.7128L53.3497 54.7038L56.0402 52.0246L63.7007 36.516L55.4613 32.7128Z" fill="#D4AF95"/>
<path d="M50.5162 17.7178L49.7974 29.1865L46.2349 29.3428L46.2662 23.2959L44.6568 28.1709H43.2818L42.0474 23.8115L42.0318 28.874L38.4224 28.9834L38.5787 18.1865L42.5943 18.0303L44.1881 23.2021L46.3131 17.7178H50.5162ZM60.1768 23.124C60.1768 23.598 60.1221 24.0563 60.0128 24.499C59.9034 24.9365 59.7445 25.348 59.5362 25.7334C59.3331 26.1188 59.0831 26.473 58.7862 26.7959C58.4945 27.1136 58.1638 27.387 57.794 27.6162C57.4294 27.8454 57.031 28.0251 56.5987 28.1553C56.1664 28.2803 55.7081 28.3428 55.2237 28.3428C54.7549 28.3428 54.307 28.2829 53.8799 28.1631C53.4581 28.0433 53.0622 27.8766 52.6924 27.6631C52.3227 27.4443 51.9867 27.1839 51.6846 26.8818C51.3878 26.5745 51.1325 26.236 50.919 25.8662C50.7107 25.4912 50.5466 25.0902 50.4268 24.6631C50.3122 24.236 50.2549 23.7907 50.2549 23.3271C50.2549 22.874 50.3096 22.4313 50.419 21.999C50.5284 21.5615 50.6846 21.1501 50.8878 20.7646C51.0961 20.3792 51.3461 20.0251 51.6378 19.7021C51.9294 19.3792 52.2549 19.1006 52.6143 18.8662C52.9789 18.6318 53.3721 18.4495 53.794 18.3193C54.2159 18.1891 54.6612 18.124 55.1299 18.124C55.8852 18.124 56.5727 18.2412 57.1924 18.4756C57.8174 18.71 58.3487 19.0459 58.7862 19.4834C59.2289 19.9157 59.57 20.4417 59.8096 21.0615C60.0544 21.6761 60.1768 22.3636 60.1768 23.124ZM56.7081 23.3271C56.7081 23.1032 56.6742 22.887 56.6065 22.6787C56.544 22.4652 56.4503 22.2777 56.3253 22.1162C56.2003 21.9495 56.044 21.8167 55.8565 21.7178C55.6742 21.6136 55.4633 21.5615 55.2237 21.5615C54.9789 21.5615 54.7602 21.6058 54.5674 21.6943C54.3747 21.7829 54.2081 21.9053 54.0674 22.0615C53.932 22.2126 53.8279 22.3923 53.7549 22.6006C53.682 22.8037 53.6456 23.0199 53.6456 23.249C53.6456 23.4678 53.6768 23.6865 53.7393 23.9053C53.8018 24.124 53.8956 24.3219 54.0206 24.499C54.1456 24.6761 54.2992 24.8193 54.4815 24.9287C54.669 25.0381 54.8852 25.0928 55.1299 25.0928C55.3747 25.0928 55.5935 25.0459 55.7862 24.9521C55.9841 24.8532 56.1508 24.723 56.2862 24.5615C56.4216 24.3949 56.5258 24.2048 56.5987 23.9912C56.6716 23.7777 56.7081 23.5563 56.7081 23.3271ZM69.8453 25.1553C69.8453 25.7438 69.8374 26.3271 69.8218 26.9053C69.8114 27.4782 69.7932 28.0563 69.7671 28.6396L65.2671 28.5615C65.4234 27.6396 65.5588 26.7204 65.6734 25.8037C65.788 24.8818 65.8453 23.9521 65.8453 23.0146C65.8453 22.9469 65.8427 22.8376 65.8374 22.6865C65.8322 22.5355 65.8218 22.3662 65.8062 22.1787C65.7906 21.986 65.7671 21.7907 65.7359 21.5928C65.7098 21.3896 65.6708 21.2048 65.6187 21.0381C65.5718 20.8714 65.5119 20.736 65.439 20.6318C65.3713 20.5225 65.288 20.4678 65.189 20.4678C65.0119 20.4678 64.8609 20.5199 64.7359 20.624C64.6161 20.7282 64.5145 20.8636 64.4312 21.0303C64.3531 21.1917 64.2906 21.374 64.2437 21.5771C64.1968 21.7803 64.1604 21.9834 64.1343 22.1865C64.1135 22.3896 64.0979 22.5824 64.0874 22.7646C64.0822 22.9417 64.0796 23.0876 64.0796 23.2021C64.0536 24.124 64.0328 25.0407 64.0171 25.9521C64.0015 26.8584 63.9807 27.7751 63.9546 28.7021L59.9703 28.874C60.0744 27.0355 60.1734 25.2074 60.2671 23.3896C60.3661 21.5719 60.4442 19.7438 60.5015 17.9053L64.189 17.7178L64.1578 18.9678C64.3036 18.7907 64.4598 18.624 64.6265 18.4678C64.7984 18.3115 64.9807 18.1787 65.1734 18.0693C65.3661 17.9548 65.5692 17.8662 65.7828 17.8037C66.0015 17.736 66.2307 17.7021 66.4703 17.7021C66.913 17.7021 67.301 17.7751 67.6343 17.9209C67.9677 18.0667 68.2541 18.2646 68.4937 18.5146C68.7333 18.7646 68.9338 19.0615 69.0953 19.4053C69.2567 19.7438 69.3869 20.1058 69.4859 20.4912C69.5848 20.8766 69.6604 21.2803 69.7124 21.7021C69.7645 22.1188 69.7984 22.5303 69.814 22.9365C69.8348 23.3428 69.8453 23.736 69.8453 24.1162C69.8453 24.4964 69.8453 24.8428 69.8453 25.1553Z" fill="#CECECE"/>
</svg>
