<svg width="164" height="147" viewBox="0 0 164 147" fill="none" xmlns="http://www.w3.org/2000/svg">
<path d="M110.573 92.9355L104.253 100.69L96.8587 95.5312L79.1674 111.76L66.4812 91.2616L21.7871 99.7094L30.2429 79.8109L6.73133 60.1679L41.9267 60.168L31.3328 19.5376L66.4811 39.9436L74.0418 9.8091L91.3627 39.9436L107.972 24.0459L113.236 46.3502L134.546 39.9436L125.767 55.4625L157.799 60.168L120.854 79.8109L143.551 99.7094L110.573 92.9355Z" fill="#B2B2B2"/>
<path d="M137.462 111.499L108.651 131.455L76.4559 122.281L65.7869 80.2343C65.0253 77.2326 66.3916 74.0958 69.1084 72.6093C72.9858 70.4876 77.8244 72.5781 78.9371 76.8556L81.6212 87.1735L81.1562 62.4792C81.0914 59.0362 83.6429 56.1029 87.0617 55.6901C91.0972 55.2028 94.6361 58.3864 94.5767 62.4508L94.238 85.65L98.8682 59.5508C99.6454 55.1696 103.947 52.3439 108.277 53.3705C112.366 54.3401 114.935 58.3955 114.064 62.507L108.476 88.8943L116.307 67.4868C117.927 63.0605 123.245 61.2949 127.19 63.874C129.993 65.7061 131.196 69.2058 130.111 72.3737L118.244 107.047L128.486 99.1899C132.081 96.4316 137.275 97.4026 139.632 101.274C141.729 104.719 140.778 109.202 137.462 111.499Z" fill="#707070"/>
<rect width="42.5664" height="11.8656" transform="matrix(-0.960825 -0.277157 -0.277157 0.960825 114.058 130.078)" fill="#949494"/>
<path d="M32.8221 111.059L61.852 130.695L93.9439 121.164L104.146 79.0017C104.874 75.9917 103.473 72.8703 100.74 71.4139C96.8395 69.3354 92.0244 71.4794 90.9591 75.769L88.3897 86.116L88.5808 61.4181C88.6074 57.9746 86.0235 55.0697 82.6004 54.6948C78.5597 54.2523 75.0564 57.475 75.1608 61.5385L75.7567 84.7324L70.8375 58.6862C70.0117 54.3139 65.6789 51.536 61.361 52.6106C57.2826 53.6255 54.759 57.7091 55.6753 61.8107L61.556 88.1344L53.4873 66.8151C51.819 62.407 46.481 60.7004 42.5649 63.3231C39.7829 65.1862 38.6191 68.6991 39.7385 71.8546L51.9899 106.394L41.6612 98.6512C38.0351 95.9329 32.8523 96.9615 30.539 100.858C28.48 104.327 29.481 108.799 32.8221 111.059Z" fill="#E3E3E3"/>
<rect x="56.4309" y="129.378" width="42.5664" height="11.8656" transform="rotate(-16.7258 56.4309 129.378)" fill="#BFBFBF"/>
<path fill-rule="evenodd" clip-rule="evenodd" d="M54.2692 10.7315C54.5611 11.0801 54.5156 11.5997 54.1674 11.8921C51.4064 14.2104 49.1972 17.0387 48.7087 20.5232C48.3461 23.1098 49.3269 25.2128 51.4337 26.7996C51.7725 27.0547 52.1195 27.2883 52.4746 27.5002C52.7713 26.6368 53.1539 25.8062 53.6261 25.0263C54.5106 23.5655 55.9615 22.0557 57.657 21.0637C59.3501 20.0731 61.3995 19.5398 63.3946 20.2646C64.7865 20.7702 65.9705 21.9909 66.5623 23.3741C67.1607 24.7729 67.2074 26.4919 66.051 27.8649C65.0854 29.0114 63.7036 29.6974 62.3151 30.1029C60.9194 30.5104 59.4456 30.6558 58.2066 30.6701C56.5711 30.6891 55.0147 30.412 53.5577 29.8528C52.952 33.1483 53.5762 36.7759 55.2503 39.5983C56.8219 42.2481 59.3514 44.1724 62.1511 45.6078C62.5556 45.8151 62.7155 46.3115 62.5085 46.7165C62.3014 47.1215 61.8057 47.2817 61.4013 47.0744C58.4487 45.5606 55.6239 43.4546 53.8356 40.4397C51.9048 37.1843 51.2046 32.9618 52.0213 29.1386C51.4789 28.8402 50.953 28.4991 50.4447 28.1163C47.9095 26.2069 46.6251 23.5338 47.0793 20.2942C47.6488 16.2316 50.2055 13.0685 53.1102 10.6295C53.4584 10.3372 53.9773 10.3828 54.2692 10.7315ZM53.9627 28.2418C55.281 28.7762 56.6934 29.0399 58.1876 29.0226C59.3268 29.0094 60.6433 28.8748 61.8544 28.5211C63.0728 28.1653 64.1144 27.6087 64.7933 26.8027C65.4366 26.0387 65.48 25.0284 65.0499 24.023C64.6131 23.002 63.7431 22.1439 62.8335 21.8134C61.4611 21.3149 59.9355 21.6389 58.487 22.4863C57.0408 23.3324 55.7833 24.6414 55.0331 25.8805C54.5868 26.6177 54.2311 27.4117 53.9627 28.2418Z" fill="#707070"/>
</svg>
