<svg width="109" height="110" viewBox="0 0 109 110" fill="none" xmlns="http://www.w3.org/2000/svg">
<circle cx="54.4851" cy="55.4558" r="52.4851" fill="#FFEBDC" stroke="#FF903F" stroke-width="4"/>
<path d="M33.0816 39.2677L35.0981 24.2881L42.3 32.2185L50.3661 17.2389L59.2965 29.8687C66.9785 25.463 81.3122 14.5479 81.3122 14.5479L78.1771 34.8728L99.339 46.0232L77.1572 49.254L90.4087 74.5137L60.7369 67.4645L63.3295 85.0875L44.3165 65.1147L29.9128 77.1571V63.9399L12.3401 66.2896L25.3036 49.254L14.3567 37.7991L33.0816 39.2677Z" fill="white"/>
<path d="M30.0069 52.9922H75.4937L71.6688 91.9637H34.5968L30.0069 52.9922Z" fill="#FF903F"/>
<rect x="50.4324" y="52.9922" width="4.63602" height="38.9714" fill="black"/>
<mask id="mask0_2004_12276" style="mask-type:alpha" maskUnits="userSpaceOnUse" x="30" y="52" width="46" height="40">
<path d="M30.0069 52.9922H75.4937L71.6688 91.9637H34.5968L30.0069 52.9922Z" fill="#FF903F"/>
</mask>
<g mask="url(#mask0_2004_12276)">
<rect x="74.8503" y="64.0967" width="5.25795" height="44.1995" transform="rotate(90 74.8503 64.0967)" fill="black"/>
</g>
<path d="M50.0803 36.0791L38.0787 43.8902L50.4351 52.9893H52.6441L50.0803 36.0791Z" fill="black"/>
<path d="M54.4911 33.6835L52.3796 55.6745L55.0701 52.9953L62.7306 37.4867L54.4911 33.6835Z" fill="black"/>
<path d="M49.796 18.9697C49.7647 19.4593 49.7361 19.9437 49.71 20.4229C49.684 20.902 49.6501 21.3864 49.6085 21.876L46.296 22.0479V23.0322H49.171L49.0147 25.4541L46.2804 25.5322L46.296 29.8447L42.3429 29.9229L42.5929 18.9697H49.796ZM58.8941 22.5479C58.8941 22.9541 58.8576 23.3239 58.7847 23.6572C58.717 23.9854 58.6076 24.2874 58.4566 24.5635C58.3056 24.8395 58.1102 25.0947 57.8707 25.3291C57.6311 25.5635 57.342 25.7874 57.0035 26.001L58.8629 29.3135L55.3472 30.001L54.1441 26.6729L53.1754 26.7041L53.0347 29.9541H49.6754C49.7014 28.7666 49.7248 27.5843 49.7457 26.4072C49.7717 25.2301 49.8004 24.0479 49.8316 22.8604C49.842 22.2614 49.8524 21.6676 49.8629 21.0791C49.8733 20.4906 49.8941 19.8968 49.9254 19.2979C50.2899 19.1624 50.6493 19.0505 51.0035 18.9619C51.3576 18.8734 51.7118 18.8057 52.066 18.7588C52.4254 18.7067 52.7873 18.6729 53.1519 18.6572C53.5217 18.6364 53.8993 18.626 54.2847 18.626C54.8785 18.626 55.4514 18.7093 56.0035 18.876C56.5608 19.0374 57.053 19.2822 57.48 19.6104C57.9071 19.9385 58.2483 20.3473 58.5035 20.8369C58.7639 21.3265 58.8941 21.8968 58.8941 22.5479ZM55.3941 22.7979C55.3941 22.5791 55.3629 22.3786 55.3004 22.1963C55.2431 22.014 55.1545 21.8577 55.0347 21.7275C54.9201 21.5921 54.7743 21.488 54.5972 21.415C54.4254 21.3369 54.2222 21.2979 53.9879 21.2979C53.8837 21.2979 53.7821 21.3057 53.6832 21.3213C53.5842 21.3317 53.4879 21.3499 53.3941 21.376L53.2691 24.2822H53.4566C53.6806 24.2822 53.9071 24.2536 54.1363 24.1963C54.3707 24.139 54.579 24.0505 54.7613 23.9307C54.9488 23.8109 55.0998 23.6572 55.2144 23.4697C55.3342 23.2822 55.3941 23.0583 55.3941 22.7979ZM63.0391 19.0791L62.4922 29.7197L59.1954 29.8916L58.8829 19.2979L63.0391 19.0791Z" fill="black"/>
</svg>
