<svg width="109" height="110" viewBox="0 0 109 110" fill="none" xmlns="http://www.w3.org/2000/svg">
<circle cx="54.4851" cy="55.4265" r="52.4851" fill="#FFEBDC" stroke="#FF903F" stroke-width="4"/>
<path d="M33.0816 39.2384L35.0981 24.2588L42.3 32.1892L50.3661 17.2096L59.2965 29.8394C66.9785 25.4337 81.3122 14.5186 81.3122 14.5186L78.1771 34.8435L99.339 45.9939L77.1572 49.2247L90.4087 74.4844L60.7369 67.4352L63.3295 85.0582L44.3165 65.0854L29.9128 77.1278V63.9106L12.3401 66.2603L25.3036 49.2247L14.3567 37.7698L33.0816 39.2384Z" fill="white"/>
<path d="M30.0069 52.9629H75.4937L71.6688 91.9344H34.5968L30.0069 52.9629Z" fill="#FF903F"/>
<rect x="50.4324" y="52.9629" width="4.63602" height="38.9714" fill="black"/>
<mask id="mask0_2004_12304" style="mask-type:alpha" maskUnits="userSpaceOnUse" x="30" y="52" width="46" height="40">
<path d="M30.0069 52.9629H75.4937L71.6688 91.9344H34.5968L30.0069 52.9629Z" fill="#FF903F"/>
</mask>
<g mask="url(#mask0_2004_12304)">
<rect x="74.8503" y="64.0674" width="5.25795" height="44.1995" transform="rotate(90 74.8503 64.0674)" fill="black"/>
</g>
<path d="M50.0803 36.0498L38.0787 43.8609L50.4351 52.96H52.6441L50.0803 36.0498Z" fill="black"/>
<path d="M54.4911 33.6542L52.3796 55.6452L55.0701 52.966L62.7306 37.4574L54.4911 33.6542Z" fill="black"/>
<path d="M48.4444 26.0498C48.4444 26.7633 48.3194 27.3805 48.0694 27.9014C47.8246 28.417 47.4861 28.8441 47.0538 29.1826C46.6267 29.516 46.1241 29.7633 45.546 29.9248C44.9731 30.0811 44.3559 30.1592 43.6944 30.1592C43.4392 30.1592 43.158 30.1253 42.8507 30.0576C42.5486 29.9899 42.2413 29.9066 41.9288 29.8076C41.6163 29.7035 41.3142 29.5941 41.0225 29.4795C40.7361 29.3597 40.4809 29.2477 40.2569 29.1436L40.6007 26.0811C41.0434 26.3467 41.533 26.5498 42.0694 26.6904C42.6111 26.8258 43.1423 26.8936 43.6632 26.8936C43.7621 26.8936 43.8819 26.891 44.0225 26.8857C44.1632 26.8753 44.296 26.8519 44.421 26.8154C44.5512 26.7738 44.6606 26.7139 44.7491 26.6357C44.8376 26.5576 44.8819 26.4456 44.8819 26.2998C44.8819 26.2008 44.8507 26.1175 44.7882 26.0498C44.7257 25.9769 44.6449 25.9196 44.546 25.8779C44.447 25.8311 44.335 25.7972 44.21 25.7764C44.085 25.7503 43.9626 25.7321 43.8429 25.7217C43.7231 25.7113 43.6111 25.7061 43.5069 25.7061C43.4027 25.7061 43.3194 25.7061 43.2569 25.7061C42.809 25.7061 42.4001 25.6357 42.0304 25.4951C41.6658 25.3545 41.3507 25.1566 41.085 24.9014C40.8246 24.641 40.6215 24.3285 40.4757 23.9639C40.3298 23.5941 40.2569 23.1852 40.2569 22.7373C40.2569 22.1227 40.3793 21.5732 40.6241 21.0889C40.8741 20.5993 41.2048 20.1852 41.6163 19.8467C42.033 19.5029 42.5095 19.2399 43.046 19.0576C43.5824 18.8753 44.1371 18.7842 44.71 18.7842C44.9652 18.7842 45.2283 18.7946 45.4991 18.8154C45.7699 18.8311 46.0382 18.8623 46.3038 18.9092C46.5746 18.9561 46.8376 19.016 47.0929 19.0889C47.3481 19.1618 47.5902 19.2529 47.8194 19.3623L47.5225 22.5342C47.1684 22.4144 46.796 22.3154 46.4054 22.2373C46.0199 22.154 45.6423 22.1123 45.2725 22.1123C45.2048 22.1123 45.1163 22.1149 45.0069 22.1201C44.9027 22.1201 44.7908 22.1279 44.671 22.1436C44.5564 22.154 44.4392 22.1722 44.3194 22.1982C44.1996 22.2243 44.0929 22.2607 43.9991 22.3076C43.9054 22.3493 43.8298 22.4066 43.7725 22.4795C43.7152 22.5524 43.6892 22.6383 43.6944 22.7373C43.6996 22.8519 43.7413 22.9404 43.8194 23.0029C43.9027 23.0654 44.0069 23.1123 44.1319 23.1436C44.2621 23.1696 44.4027 23.1826 44.5538 23.1826C44.71 23.1826 44.8637 23.18 45.0147 23.1748C45.1658 23.1644 45.3064 23.1566 45.4366 23.1514C45.5668 23.141 45.6736 23.1383 45.7569 23.1436C46.1736 23.1696 46.5486 23.2581 46.8819 23.4092C47.2152 23.5602 47.4965 23.7607 47.7257 24.0107C47.96 24.2607 48.1371 24.5602 48.2569 24.9092C48.3819 25.2529 48.4444 25.6331 48.4444 26.0498ZM58.2144 29.3779L54.3394 29.8779L53.8707 28.1123H52.0894L51.6988 29.8779L47.7144 29.4873L50.8238 19.0811L55.1675 18.8623L58.2144 29.3779ZM53.5894 25.7217L52.9957 23.0029L52.4175 25.7217H53.5894ZM65.2032 19.0342L65.125 22.3467L62.7969 22.4404L62.5157 29.6904L59.2188 29.8623L58.9219 22.6123L56.5938 22.7373L56.6875 19.0498L65.2032 19.0342Z" fill="black"/>
</svg>
