<svg width="112" height="20" viewBox="0 0 112 20" fill="none" xmlns="http://www.w3.org/2000/svg">
<path d="M111.443 16.8761C111.029 17.3953 110.519 17.8484 109.912 18.2355C109.304 18.6227 108.653 18.9438 107.958 19.199C107.263 19.4541 106.55 19.6433 105.82 19.7665C105.09 19.8984 104.395 19.9644 103.735 19.9644C102.459 19.9644 101.285 19.7357 100.211 19.2781C99.1377 18.8206 98.2094 18.1915 97.4264 17.3909C96.6521 16.5814 96.045 15.6311 95.6051 14.5401C95.1651 13.4491 94.9452 12.2745 94.9452 11.0163C94.9452 10.0572 95.0551 9.12018 95.2751 8.20513C95.4951 7.28128 95.8074 6.41462 96.2122 5.60515C96.6257 4.78688 97.1272 4.039 97.7167 3.36151C98.3062 2.67522 98.9749 2.08571 99.7228 1.59299C100.471 1.10027 101.289 0.717535 102.178 0.444779C103.066 0.172023 104.016 0.0356445 105.028 0.0356445C105.407 0.0356445 105.811 0.0532416 106.243 0.0884359C106.674 0.114832 107.1 0.167623 107.523 0.24681C107.954 0.317199 108.372 0.418383 108.777 0.550362C109.181 0.68234 109.551 0.845114 109.885 1.03868L109.516 6.08027C109.023 5.8955 108.513 5.77232 107.985 5.71073C107.466 5.64034 106.955 5.60515 106.454 5.60515C105.75 5.60515 105.09 5.71513 104.474 5.93509C103.867 6.14626 103.335 6.45421 102.877 6.85895C102.428 7.26368 102.072 7.7564 101.808 8.33711C101.544 8.91782 101.412 9.57331 101.412 10.3036C101.412 10.7611 101.474 11.2054 101.597 11.6366C101.72 12.0589 101.905 12.4372 102.151 12.7716C102.406 13.0971 102.719 13.3611 103.088 13.5635C103.467 13.7658 103.902 13.867 104.395 13.867C104.729 13.867 105.072 13.823 105.424 13.735C105.785 13.6471 106.093 13.4975 106.348 13.2863L106.401 12.2569L103.233 12.2041L103.392 8.24472C104.703 8.20073 106.014 8.16554 107.325 8.13914C108.636 8.10395 109.956 8.05995 111.284 8.00716L111.443 16.8761Z" fill="#FF903F"/>
<path d="M95.67 10.2508C95.67 11.0515 95.5776 11.8258 95.3928 12.5737C95.2081 13.3127 94.9397 14.0078 94.5878 14.6589C94.2446 15.31 93.8223 15.9083 93.3208 16.4538C92.828 16.9906 92.2693 17.4525 91.6446 17.8396C91.0287 18.2268 90.3556 18.5303 89.6254 18.7503C88.8951 18.9614 88.1208 19.067 87.3025 19.067C86.5107 19.067 85.754 18.9658 85.0325 18.7635C84.3198 18.5611 83.6511 18.2795 83.0264 17.9188C82.4017 17.5493 81.8342 17.1093 81.3239 16.599C80.8224 16.0799 80.3913 15.508 80.0305 14.8833C79.6786 14.2498 79.4014 13.5723 79.199 12.8508C79.0055 12.1293 78.9087 11.3771 78.9087 10.594C78.9087 9.82851 79.0011 9.08063 79.1858 8.35035C79.3706 7.61126 79.6346 6.91618 79.9777 6.26508C80.3297 5.61399 80.752 5.01568 81.2447 4.47017C81.7374 3.92466 82.2873 3.45393 82.8944 3.058C83.5103 2.66206 84.1746 2.35411 84.8873 2.13415C85.6 1.91418 86.3523 1.8042 87.1442 1.8042C88.42 1.8042 89.5814 2.00217 90.6284 2.3981C91.6842 2.79404 92.5817 3.36155 93.3208 4.10063C94.0687 4.83091 94.645 5.71957 95.0497 6.7666C95.4632 7.80483 95.67 8.96625 95.67 10.2508ZM89.8101 10.594C89.8101 10.2156 89.7529 9.8505 89.6386 9.49856C89.533 9.13782 89.3746 8.82107 89.1634 8.54831C88.9523 8.26676 88.6883 8.04239 88.3716 7.87522C88.0636 7.69925 87.7073 7.61126 87.3025 7.61126C86.889 7.61126 86.5195 7.68605 86.1939 7.83563C85.8684 7.9852 85.5868 8.19197 85.3493 8.45593C85.1205 8.71109 84.9445 9.01464 84.8213 9.36658C84.6982 9.70973 84.6366 10.0749 84.6366 10.462C84.6366 10.8315 84.6894 11.2011 84.7949 11.5706C84.9005 11.9402 85.0589 12.2745 85.2701 12.5737C85.4812 12.8728 85.7408 13.1148 86.0487 13.2995C86.3655 13.4843 86.7306 13.5767 87.1442 13.5767C87.5577 13.5767 87.9272 13.4975 88.2528 13.3391C88.5871 13.172 88.8687 12.952 89.0975 12.6792C89.3262 12.3977 89.5022 12.0765 89.6254 11.7158C89.7485 11.3551 89.8101 10.9811 89.8101 10.594Z" fill="#FF903F"/>
<path d="M79.8183 12.0457L79.264 17.9056L68.1514 18.7767C68.2042 15.706 68.2613 12.6528 68.3229 9.61733C68.3933 6.58182 68.4769 3.52871 68.5737 0.458008H75.4366C75.2342 2.3849 75.0407 4.31179 74.8559 6.23868C74.6711 8.15677 74.5391 10.0925 74.46 12.0457C74.8735 12.0633 75.2826 12.0721 75.6874 12.0721C76.0921 12.0721 76.5012 12.0721 76.9148 12.0721C77.4075 12.0721 77.8914 12.0677 78.3665 12.0589C78.8416 12.0501 79.3256 12.0457 79.8183 12.0457Z" fill="#FF903F"/>
<path d="M64.0183 0.642921L63.0681 18.5392L56.1524 19.1727L52.457 9.59108L51.8763 19.3575H45.9372L46.4123 0.642921L53.0113 0.326172L57.5778 9.82864L57.7889 0.854087L64.0183 0.642921Z" fill="#FF903F"/>
<path d="M46.2265 10.2508C46.2265 11.0515 46.1341 11.8258 45.9494 12.5737C45.7646 13.3127 45.4962 14.0078 45.1443 14.6589C44.8011 15.31 44.3788 15.9083 43.8773 16.4538C43.3846 16.9906 42.8259 17.4525 42.2012 17.8396C41.5853 18.2268 40.9122 18.5303 40.1819 18.7503C39.4516 18.9614 38.6773 19.067 37.8591 19.067C37.0672 19.067 36.3105 18.9658 35.589 18.7635C34.8763 18.5611 34.2076 18.2795 33.5829 17.9188C32.9582 17.5493 32.3907 17.1093 31.8804 16.599C31.3789 16.0799 30.9478 15.508 30.587 14.8833C30.2351 14.2498 29.9579 13.5723 29.7556 12.8508C29.562 12.1293 29.4652 11.3771 29.4652 10.594C29.4652 9.82851 29.5576 9.08063 29.7424 8.35035C29.9271 7.61126 30.1911 6.91618 30.5342 6.26508C30.8862 5.61399 31.3085 5.01568 31.8012 4.47017C32.294 3.92466 32.8439 3.45393 33.451 3.058C34.0669 2.66206 34.7312 2.35411 35.4438 2.13415C36.1565 1.91418 36.9088 1.8042 37.7007 1.8042C38.9765 1.8042 40.1379 2.00217 41.1849 2.3981C42.2408 2.79404 43.1382 3.36155 43.8773 4.10063C44.6252 4.83091 45.2015 5.71957 45.6062 6.7666C46.0197 7.80483 46.2265 8.96625 46.2265 10.2508ZM40.3667 10.594C40.3667 10.2156 40.3095 9.8505 40.1951 9.49856C40.0895 9.13782 39.9311 8.82107 39.72 8.54831C39.5088 8.26676 39.2448 8.04239 38.9281 7.87522C38.6201 7.69925 38.2638 7.61126 37.8591 7.61126C37.4455 7.61126 37.076 7.68605 36.7504 7.83563C36.4249 7.9852 36.1433 8.19197 35.9058 8.45593C35.677 8.71109 35.501 9.01464 35.3779 9.36658C35.2547 9.70973 35.1931 10.0749 35.1931 10.462C35.1931 10.8315 35.2459 11.2011 35.3515 11.5706C35.457 11.9402 35.6154 12.2745 35.8266 12.5737C36.0378 12.8728 36.2973 13.1148 36.6053 13.2995C36.922 13.4843 37.2872 13.5767 37.7007 13.5767C38.1142 13.5767 38.4838 13.4975 38.8093 13.3391C39.1437 13.172 39.4252 12.952 39.654 12.6792C39.8827 12.3977 40.0587 12.0765 40.1819 11.7158C40.3051 11.3551 40.3667 10.9811 40.3667 10.594Z" fill="#FF903F"/>
<path d="M30.0713 10.2508C30.0713 11.0515 29.9789 11.8258 29.7941 12.5737C29.6093 13.3127 29.341 14.0078 28.989 14.6589C28.6459 15.31 28.2236 15.9083 27.722 16.4538C27.2293 16.9906 26.6706 17.4525 26.0459 17.8396C25.43 18.2268 24.7569 18.5303 24.0266 18.7503C23.2964 18.9614 22.5221 19.067 21.7038 19.067C20.9119 19.067 20.1553 18.9658 19.4338 18.7635C18.7211 18.5611 18.0524 18.2795 17.4277 17.9188C16.803 17.5493 16.2355 17.1093 15.7252 16.599C15.2237 16.0799 14.7925 15.508 14.4318 14.8833C14.0798 14.2498 13.8027 13.5723 13.6003 12.8508C13.4068 12.1293 13.31 11.3771 13.31 10.594C13.31 9.82851 13.4024 9.08063 13.5871 8.35035C13.7719 7.61126 14.0359 6.91618 14.379 6.26508C14.7309 5.61399 15.1533 5.01568 15.646 4.47017C16.1387 3.92466 16.6886 3.45393 17.2957 3.058C17.9116 2.66206 18.5759 2.35411 19.2886 2.13415C20.0013 1.91418 20.7536 1.8042 21.5454 1.8042C22.8212 1.8042 23.9826 2.00217 25.0297 2.3981C26.0855 2.79404 26.983 3.36155 27.722 4.10063C28.4699 4.83091 29.0462 5.71957 29.451 6.7666C29.8645 7.80483 30.0713 8.96625 30.0713 10.2508ZM24.2114 10.594C24.2114 10.2156 24.1542 9.8505 24.0398 9.49856C23.9343 9.13782 23.7759 8.82107 23.5647 8.54831C23.3535 8.26676 23.0896 8.04239 22.7728 7.87522C22.4649 7.69925 22.1086 7.61126 21.7038 7.61126C21.2903 7.61126 20.9207 7.68605 20.5952 7.83563C20.2696 7.9852 19.9881 8.19197 19.7505 8.45593C19.5218 8.71109 19.3458 9.01464 19.2226 9.36658C19.0994 9.70973 19.0378 10.0749 19.0378 10.462C19.0378 10.8315 19.0906 11.2011 19.1962 11.5706C19.3018 11.9402 19.4602 12.2745 19.6713 12.5737C19.8825 12.8728 20.1421 13.1148 20.45 13.2995C20.7668 13.4843 21.1319 13.5767 21.5454 13.5767C21.959 13.5767 22.3285 13.4975 22.6541 13.3391C22.9884 13.172 23.27 12.952 23.4987 12.6792C23.7275 12.3977 23.9035 12.0765 24.0266 11.7158C24.1498 11.3551 24.2114 10.9811 24.2114 10.594Z" fill="#FF903F"/>
<path d="M14.6419 0.695312L14.5099 6.29121L10.577 6.44959L9.57391 18.9612L4.00441 19.2515L4.03081 6.73994L0.0978394 6.95111L0.256214 0.721708L14.6419 0.695312Z" fill="#FF903F"/>
</svg>
