<svg width="109" height="109" viewBox="0 0 109 109" fill="none" xmlns="http://www.w3.org/2000/svg">
<circle cx="54.4851" cy="54.4851" r="52.4851" fill="#FFEBDC" stroke="#FF903F" stroke-width="4"/>
<path d="M33.0816 38.297L35.0981 23.3174L42.3 31.2478L50.3661 16.2682L59.2965 28.898C66.9785 24.4923 81.3122 13.5771 81.3122 13.5771L78.1771 33.9021L99.339 45.0525L77.1572 48.2833L90.4087 73.543L60.7369 66.4938L63.3295 84.1168L44.3165 64.144L29.9128 76.1864V62.9692L12.3401 65.3189L25.3036 48.2833L14.3567 36.8284L33.0816 38.297Z" fill="white"/>
<path d="M30.0069 52.0215H75.4937L71.6688 90.993H34.5968L30.0069 52.0215Z" fill="#FF903F"/>
<rect x="50.4324" y="52.0215" width="4.63602" height="38.9714" fill="black"/>
<mask id="mask0_2004_12332" style="mask-type:alpha" maskUnits="userSpaceOnUse" x="30" y="52" width="46" height="39">
<path d="M30.0069 52.0215H75.4937L71.6688 90.993H34.5968L30.0069 52.0215Z" fill="#FF903F"/>
</mask>
<g mask="url(#mask0_2004_12332)">
<rect x="74.8503" y="63.126" width="5.25795" height="44.1995" transform="rotate(90 74.8503 63.126)" fill="black"/>
</g>
<path d="M50.0803 35.1084L38.0787 42.9195L50.4351 52.0186H52.6441L50.0803 35.1084Z" fill="black"/>
<path d="M54.4911 32.7128L52.3796 54.7038L55.0701 52.0246L62.7306 36.516L54.4911 32.7128Z" fill="black"/>
<path d="M47.1632 25.1084C47.1632 25.8219 47.0382 26.4391 46.7882 26.96C46.5434 27.4756 46.2048 27.9027 45.7725 28.2412C45.3455 28.5745 44.8429 28.8219 44.2647 28.9834C43.6918 29.1396 43.0746 29.2178 42.4132 29.2178C42.158 29.2178 41.8767 29.1839 41.5694 29.1162C41.2673 29.0485 40.96 28.9652 40.6475 28.8662C40.335 28.762 40.033 28.6527 39.7413 28.5381C39.4548 28.4183 39.1996 28.3063 38.9757 28.2021L39.3194 25.1396C39.7621 25.4053 40.2517 25.6084 40.7882 25.749C41.3298 25.8844 41.8611 25.9521 42.3819 25.9521C42.4809 25.9521 42.6007 25.9495 42.7413 25.9443C42.8819 25.9339 43.0147 25.9105 43.1397 25.874C43.2699 25.8324 43.3793 25.7725 43.4679 25.6943C43.5564 25.6162 43.6007 25.5042 43.6007 25.3584C43.6007 25.2594 43.5694 25.1761 43.5069 25.1084C43.4444 25.0355 43.3637 24.9782 43.2647 24.9365C43.1658 24.8896 43.0538 24.8558 42.9288 24.835C42.8038 24.8089 42.6814 24.7907 42.5616 24.7803C42.4418 24.7699 42.3298 24.7646 42.2257 24.7646C42.1215 24.7646 42.0382 24.7646 41.9757 24.7646C41.5277 24.7646 41.1189 24.6943 40.7491 24.5537C40.3845 24.4131 40.0694 24.2152 39.8038 23.96C39.5434 23.6995 39.3402 23.387 39.1944 23.0225C39.0486 22.6527 38.9757 22.2438 38.9757 21.7959C38.9757 21.1813 39.0981 20.6318 39.3429 20.1475C39.5929 19.6579 39.9236 19.2438 40.335 18.9053C40.7517 18.5615 41.2283 18.2985 41.7647 18.1162C42.3012 17.9339 42.8559 17.8428 43.4288 17.8428C43.684 17.8428 43.947 17.8532 44.2179 17.874C44.4887 17.8896 44.7569 17.9209 45.0225 17.9678C45.2934 18.0146 45.5564 18.0745 45.8116 18.1475C46.0668 18.2204 46.309 18.3115 46.5382 18.4209L46.2413 21.5928C45.8871 21.473 45.5147 21.374 45.1241 21.2959C44.7387 21.2126 44.3611 21.1709 43.9913 21.1709C43.9236 21.1709 43.835 21.1735 43.7257 21.1787C43.6215 21.1787 43.5095 21.1865 43.3897 21.2021C43.2751 21.2126 43.158 21.2308 43.0382 21.2568C42.9184 21.2829 42.8116 21.3193 42.7179 21.3662C42.6241 21.4079 42.5486 21.4652 42.4913 21.5381C42.434 21.611 42.408 21.6969 42.4132 21.7959C42.4184 21.9105 42.46 21.999 42.5382 22.0615C42.6215 22.124 42.7257 22.1709 42.8507 22.2021C42.9809 22.2282 43.1215 22.2412 43.2725 22.2412C43.4288 22.2412 43.5824 22.2386 43.7335 22.2334C43.8845 22.223 44.0251 22.2152 44.1554 22.21C44.2856 22.1995 44.3923 22.1969 44.4757 22.2021C44.8923 22.2282 45.2673 22.3167 45.6007 22.4678C45.934 22.6188 46.2152 22.8193 46.4444 23.0693C46.6788 23.3193 46.8559 23.6188 46.9757 23.9678C47.1007 24.3115 47.1632 24.6917 47.1632 25.1084ZM56.5035 18.1084C56.2691 19.9417 56.0686 21.7673 55.9019 23.585C55.7352 25.3975 55.5764 27.223 55.4254 29.0615L52.2222 29.2959L52.3629 28.0928C52.2587 28.2126 52.1363 28.3167 51.9957 28.4053C51.8602 28.4938 51.7144 28.5667 51.5582 28.624C51.4019 28.6761 51.2405 28.7152 51.0738 28.7412C50.9071 28.762 50.7483 28.7699 50.5972 28.7646C50.2431 28.7594 49.9097 28.6917 49.5972 28.5615C49.2847 28.4261 48.9983 28.249 48.7379 28.0303C48.4774 27.8063 48.2431 27.5485 48.0347 27.2568C47.8264 26.96 47.6493 26.6501 47.5035 26.3271C47.3629 25.999 47.2535 25.6657 47.1754 25.3271C47.1024 24.9886 47.066 24.6605 47.066 24.3428C47.066 23.874 47.0738 23.3896 47.0894 22.8896C47.1102 22.3844 47.1441 21.8792 47.191 21.374C47.2379 20.8688 47.2977 20.3688 47.3707 19.874C47.4488 19.3792 47.5451 18.9053 47.6597 18.4521C48.2951 18.4834 48.9332 18.512 49.5738 18.5381C50.2144 18.5641 50.8524 18.5719 51.4879 18.5615C51.3681 19.0146 51.2483 19.4704 51.1285 19.9287C51.0139 20.3818 50.9097 20.8402 50.816 21.3037C50.7222 21.762 50.6467 22.223 50.5894 22.6865C50.5321 23.1501 50.5035 23.6188 50.5035 24.0928C50.5035 24.2021 50.5087 24.3584 50.5191 24.5615C50.5295 24.7646 50.5556 24.9652 50.5972 25.1631C50.6441 25.361 50.7118 25.5355 50.8004 25.6865C50.8941 25.8324 51.0243 25.9053 51.191 25.9053C51.3889 25.9053 51.566 25.8219 51.7222 25.6553C51.8785 25.4834 52.0165 25.2542 52.1363 24.9678C52.2561 24.6813 52.3576 24.3506 52.441 23.9756C52.5295 23.6006 52.6024 23.21 52.6597 22.8037C52.7222 22.3923 52.7717 21.9782 52.8082 21.5615C52.8446 21.1449 52.8707 20.7542 52.8863 20.3896C52.9071 20.0199 52.9201 19.6891 52.9254 19.3975C52.9358 19.1058 52.941 18.8792 52.941 18.7178C52.941 18.6136 52.9384 18.512 52.9332 18.4131C52.928 18.3141 52.9201 18.2126 52.9097 18.1084C53.2483 18.1188 53.5842 18.1266 53.9175 18.1318C54.2509 18.137 54.5868 18.1396 54.9254 18.1396C55.1858 18.1396 55.4462 18.1396 55.7066 18.1396C55.9722 18.1344 56.2379 18.124 56.5035 18.1084ZM66.1875 25.1553C66.1875 25.7438 66.1797 26.3271 66.1641 26.9053C66.1537 27.4782 66.1355 28.0563 66.1094 28.6396L61.6094 28.5615C61.7657 27.6396 61.9011 26.7204 62.0157 25.8037C62.1303 24.8818 62.1875 23.9521 62.1875 23.0146C62.1875 22.9469 62.1849 22.8376 62.1797 22.6865C62.1745 22.5355 62.1641 22.3662 62.1485 22.1787C62.1329 21.986 62.1094 21.7907 62.0782 21.5928C62.0521 21.3896 62.0131 21.2048 61.961 21.0381C61.9141 20.8714 61.8542 20.736 61.7813 20.6318C61.7136 20.5225 61.6303 20.4678 61.5313 20.4678C61.3542 20.4678 61.2032 20.5199 61.0782 20.624C60.9584 20.7282 60.8568 20.8636 60.7735 21.0303C60.6954 21.1917 60.6329 21.374 60.586 21.5771C60.5391 21.7803 60.5026 21.9834 60.4766 22.1865C60.4558 22.3896 60.4401 22.5824 60.4297 22.7646C60.4245 22.9417 60.4219 23.0876 60.4219 23.2021C60.3959 24.124 60.375 25.0407 60.3594 25.9521C60.3438 26.8584 60.323 27.7751 60.2969 28.7021L56.3125 28.874C56.4167 27.0355 56.5157 25.2074 56.6094 23.3896C56.7084 21.5719 56.7865 19.7438 56.8438 17.9053L60.5313 17.7178L60.5 18.9678C60.6459 18.7907 60.8021 18.624 60.9688 18.4678C61.1407 18.3115 61.323 18.1787 61.5157 18.0693C61.7084 17.9548 61.9115 17.8662 62.125 17.8037C62.3438 17.736 62.573 17.7021 62.8125 17.7021C63.2553 17.7021 63.6433 17.7751 63.9766 17.9209C64.3099 18.0667 64.5964 18.2646 64.836 18.5146C65.0756 18.7646 65.2761 19.0615 65.4375 19.4053C65.599 19.7438 65.7292 20.1058 65.8282 20.4912C65.9271 20.8766 66.0026 21.2803 66.0547 21.7021C66.1068 22.1188 66.1407 22.5303 66.1563 22.9365C66.1771 23.3428 66.1875 23.736 66.1875 24.1162C66.1875 24.4964 66.1875 24.8428 66.1875 25.1553Z" fill="black"/>
</svg>
