<svg width="110" height="110" viewBox="0 0 110 110" fill="none" xmlns="http://www.w3.org/2000/svg">
<circle cx="55.4553" cy="55.4558" r="52.4851" fill="#F7F7FA" stroke="#E8E8ED" stroke-width="4"/>
<path d="M34.0518 39.2677L36.0683 24.2881L43.2702 32.2185L51.3363 17.2389L60.2667 29.8687C67.9487 25.463 82.2824 14.5479 82.2824 14.5479L79.1473 34.8728L100.309 46.0232L78.1274 49.254L91.3789 74.5137L61.7071 67.4645L64.2998 85.0875L45.2868 65.1147L30.883 77.1571V63.9399L13.3104 66.2896L26.2738 49.254L15.3269 37.7991L34.0518 39.2677Z" fill="#E8E8ED"/>
<path d="M30.9771 52.9922H76.4639L72.639 91.9637H35.567L30.9771 52.9922Z" fill="#F5D4BC"/>
<rect x="51.4026" y="52.9922" width="4.63602" height="38.9714" fill="#D4AF95"/>
<mask id="mask0_2004_12262" style="mask-type:alpha" maskUnits="userSpaceOnUse" x="30" y="52" width="47" height="40">
<path d="M30.9771 52.9922H76.4639L72.639 91.9637H35.567L30.9771 52.9922Z" fill="#FF903F"/>
</mask>
<g mask="url(#mask0_2004_12262)">
<rect x="75.8206" y="64.0967" width="5.25795" height="44.1995" transform="rotate(90 75.8206 64.0967)" fill="#D4AF95"/>
</g>
<path d="M51.0505 36.0791L39.0489 43.8902L51.4053 52.9893H53.6143L51.0505 36.0791Z" fill="#D4AF95"/>
<path d="M55.4613 33.6835L53.3497 55.6745L56.0402 52.9953L63.7007 37.4867L55.4613 33.6835Z" fill="#D4AF95"/>
<path d="M50.7662 18.9697C50.7349 19.4593 50.7063 19.9437 50.6803 20.4229C50.6542 20.902 50.6204 21.3864 50.5787 21.876L47.2662 22.0479V23.0322H50.1412L49.9849 25.4541L47.2506 25.5322L47.2662 29.8447L43.3131 29.9229L43.5631 18.9697H50.7662ZM59.8643 22.5479C59.8643 22.9541 59.8279 23.3239 59.7549 23.6572C59.6872 23.9854 59.5779 24.2874 59.4268 24.5635C59.2758 24.8395 59.0805 25.0947 58.8409 25.3291C58.6013 25.5635 58.3122 25.7874 57.9737 26.001L59.8331 29.3135L56.3174 30.001L55.1143 26.6729L54.1456 26.7041L54.0049 29.9541H50.6456C50.6716 28.7666 50.695 27.5843 50.7159 26.4072C50.7419 25.2301 50.7706 24.0479 50.8018 22.8604C50.8122 22.2614 50.8227 21.6676 50.8331 21.0791C50.8435 20.4906 50.8643 19.8968 50.8956 19.2979C51.2602 19.1624 51.6195 19.0505 51.9737 18.9619C52.3279 18.8734 52.682 18.8057 53.0362 18.7588C53.3956 18.7067 53.7575 18.6729 54.1221 18.6572C54.4919 18.6364 54.8695 18.626 55.2549 18.626C55.8487 18.626 56.4216 18.7093 56.9737 18.876C57.531 19.0374 58.0232 19.2822 58.4503 19.6104C58.8773 19.9385 59.2185 20.3473 59.4737 20.8369C59.7341 21.3265 59.8643 21.8968 59.8643 22.5479ZM56.3643 22.7979C56.3643 22.5791 56.3331 22.3786 56.2706 22.1963C56.2133 22.014 56.1247 21.8577 56.0049 21.7275C55.8904 21.5921 55.7445 21.488 55.5674 21.415C55.3956 21.3369 55.1924 21.2979 54.9581 21.2979C54.8539 21.2979 54.7523 21.3057 54.6534 21.3213C54.5544 21.3317 54.4581 21.3499 54.3643 21.376L54.2393 24.2822H54.4268C54.6508 24.2822 54.8773 24.2536 55.1065 24.1963C55.3409 24.139 55.5492 24.0505 55.7315 23.9307C55.919 23.8109 56.07 23.6572 56.1846 23.4697C56.3044 23.2822 56.3643 23.0583 56.3643 22.7979ZM64.0093 19.0791L63.4624 29.7197L60.1656 29.8916L59.8531 19.2979L64.0093 19.0791Z" fill="#CECECE"/>
</svg>
