<svg width="93" height="19" viewBox="0 0 93 19" fill="none" xmlns="http://www.w3.org/2000/svg">
<path d="M5.37629 6.51308L5.89533 2.65746L7.74904 4.69867L9.8252 0.843051L12.1238 4.09387C14.1011 2.95986 17.7905 0.150391 17.7905 0.150391L16.9835 5.38188L22.4304 8.25189L16.721 9.0835L20.1318 15.5851L12.4945 13.7707L13.1619 18.3067L8.26808 13.1659L4.56065 16.2655V12.8635L0.0375977 13.4683L3.37428 9.0835L0.556637 6.13508L5.37629 6.51308Z" fill="#FF903F"/>
<path fill-rule="evenodd" clip-rule="evenodd" d="M23.3154 3.36736C23.3824 3.28455 23.3695 3.16312 23.2867 3.09614L20.2864 0.669141C20.2036 0.602154 20.0822 0.614982 20.0152 0.697791L13.6248 8.5977C13.5578 8.68051 13.5707 8.80194 13.6535 8.86893L16.6538 11.2959C16.7366 11.3629 16.858 11.3501 16.925 11.2673L23.3154 3.36736ZM13.8093 8.99585C13.6847 8.89507 13.4987 8.98137 13.4952 9.14157L13.4337 11.9513C13.431 12.0771 13.5474 12.1718 13.67 12.1434L16.4187 11.5074C16.5753 11.4712 16.6215 11.2707 16.4965 11.1696L13.8093 8.99585Z" fill="black"/>
<path d="M3.61506 2.9425C3.13726 4.21564 2.915 5.60478 3.42704 6.90746C3.82232 7.91311 4.61636 8.47213 5.67548 8.61153C6.64647 8.73934 7.57776 8.55811 8.43151 8.06297C9.18828 7.62408 10.1179 6.87466 10.292 5.95269C10.4825 4.94369 9.30407 4.20783 8.41587 4.35664C7.11632 4.57436 6.43541 6.19803 6.39942 7.35724C6.34217 9.20094 7.51814 11.0711 9.09821 11.9776C10.1478 12.5798 11.3692 12.7402 12.5567 12.6917" stroke="black" stroke-width="0.578565" stroke-linecap="round"/>
<path d="M92.0376 13.2103C91.7981 13.5109 91.5026 13.7733 91.151 13.9975C90.7994 14.2217 90.4224 14.4076 90.0198 14.5554C89.6173 14.7032 89.2046 14.8127 88.7817 14.884C88.3588 14.9605 87.9563 14.9987 87.5741 14.9987C86.8353 14.9987 86.1551 14.8662 85.5335 14.6013C84.9119 14.3363 84.3743 13.972 83.9209 13.5083C83.4725 13.0396 83.1209 12.4893 82.8662 11.8575C82.6114 11.2257 82.484 10.5455 82.484 9.81685C82.484 9.26147 82.5477 8.71883 82.6751 8.18892C82.8025 7.65392 82.9833 7.15204 83.2177 6.68328C83.4572 6.20943 83.7476 5.77633 84.089 5.384C84.4304 4.98658 84.8176 4.64519 85.2507 4.35986C85.6838 4.07453 86.1577 3.85289 86.6723 3.69494C87.1869 3.53698 87.7372 3.45801 88.3231 3.45801C88.5422 3.45801 88.7766 3.4682 89.0263 3.48858C89.2759 3.50386 89.5231 3.53444 89.7676 3.58029C90.0173 3.62106 90.2593 3.67965 90.4937 3.75608C90.7281 3.83251 90.9421 3.92677 91.1357 4.03886L90.9217 6.95843C90.6364 6.85143 90.3408 6.78009 90.0351 6.74443C89.7345 6.70367 89.439 6.68328 89.1486 6.68328C88.7409 6.68328 88.3588 6.74697 88.0021 6.87436C87.6506 6.99664 87.3423 7.17497 87.0773 7.40935C86.8175 7.64373 86.6111 7.92907 86.4583 8.26535C86.3054 8.60164 86.229 8.98123 86.229 9.40413C86.229 9.66909 86.2647 9.92639 86.336 10.1761C86.4073 10.4206 86.5143 10.6397 86.657 10.8333C86.8048 11.0219 86.9856 11.1747 87.1996 11.2919C87.4187 11.4091 87.6709 11.4677 87.9563 11.4677C88.1499 11.4677 88.3486 11.4422 88.5524 11.3913C88.7613 11.3403 88.9397 11.2537 89.0874 11.1314L89.118 10.5353L87.2837 10.5047L87.3754 8.21185C88.1346 8.18638 88.8938 8.16599 89.653 8.15071C90.4122 8.13033 91.1765 8.10485 91.9458 8.07428L92.0376 13.2103Z" fill="black"/>
<path d="M82.9037 9.37384C82.9037 9.8375 82.8502 10.2859 82.7432 10.719C82.6362 11.147 82.4808 11.5495 82.277 11.9265C82.0782 12.3036 81.8337 12.6501 81.5432 12.966C81.2579 13.2768 80.9344 13.5443 80.5726 13.7685C80.2159 13.9927 79.8262 14.1684 79.4032 14.2958C78.9803 14.4181 78.532 14.4792 78.0581 14.4792C77.5995 14.4792 77.1613 14.4207 76.7435 14.3035C76.3308 14.1863 75.9436 14.0232 75.5818 13.8143C75.2201 13.6003 74.8914 13.3456 74.5959 13.05C74.3055 12.7494 74.0558 12.4182 73.8469 12.0565C73.6431 11.6896 73.4826 11.2973 73.3654 10.8795C73.2533 10.4617 73.1973 10.026 73.1973 9.57255C73.1973 9.12927 73.2508 8.69617 73.3578 8.27327C73.4648 7.84527 73.6176 7.44275 73.8163 7.0657C74.0201 6.68865 74.2647 6.34218 74.55 6.02627C74.8354 5.71037 75.1538 5.43778 75.5054 5.20849C75.8621 4.97921 76.2468 4.80087 76.6595 4.67349C77.0722 4.54611 77.5078 4.48242 77.9664 4.48242C78.7052 4.48242 79.3778 4.59706 79.9841 4.82635C80.5955 5.05563 81.1152 5.38428 81.5432 5.81228C81.9763 6.23518 82.3101 6.7498 82.5445 7.35613C82.7839 7.95736 82.9037 8.62993 82.9037 9.37384ZM79.5102 9.57255C79.5102 9.35346 79.4771 9.142 79.4109 8.9382C79.3497 8.72929 79.258 8.54586 79.1357 8.38791C79.0135 8.22486 78.8606 8.09494 78.6772 7.99813C78.4988 7.89622 78.2925 7.84527 78.0581 7.84527C77.8186 7.84527 77.6046 7.88858 77.4161 7.9752C77.2276 8.06182 77.0645 8.18155 76.927 8.33441C76.7945 8.48217 76.6926 8.65796 76.6213 8.86177C76.5499 9.06048 76.5143 9.27193 76.5143 9.49612C76.5143 9.71012 76.5448 9.92412 76.606 10.1381C76.6671 10.3521 76.7588 10.5457 76.8811 10.719C77.0034 10.8922 77.1537 11.0323 77.332 11.1393C77.5155 11.2463 77.7269 11.2998 77.9664 11.2998C78.2059 11.2998 78.4199 11.254 78.6084 11.1623C78.802 11.0655 78.9651 10.9381 79.0975 10.7801C79.23 10.6171 79.3319 10.4311 79.4032 10.2222C79.4746 10.0133 79.5102 9.79674 79.5102 9.57255Z" fill="black"/>
<path d="M73.724 10.4126L73.403 13.806L66.9678 14.3104C66.9983 12.5322 67.0315 10.7641 67.0671 9.00628C67.1079 7.24842 67.1563 5.48038 67.2123 3.70215H71.1866C71.0694 4.818 70.9573 5.93386 70.8503 7.04971C70.7433 8.16047 70.6669 9.28142 70.621 10.4126C70.8605 10.4227 71.0975 10.4278 71.3318 10.4278C71.5662 10.4278 71.8031 10.4278 72.0426 10.4278C72.3279 10.4278 72.6082 10.4253 72.8833 10.4202C73.1585 10.4151 73.4387 10.4126 73.724 10.4126Z" fill="black"/>
<path d="M64.5743 3.8094L64.024 14.1731L60.0192 14.5399L57.8792 8.99125L57.5429 14.6469H54.1036L54.3788 3.8094L58.2002 3.62598L60.8446 9.12882L60.9669 3.93169L64.5743 3.8094Z" fill="black"/>
<path d="M54.2713 9.37384C54.2713 9.8375 54.2178 10.2859 54.1108 10.719C54.0038 11.147 53.8484 11.5495 53.6446 11.9265C53.4459 12.3036 53.2013 12.6501 52.9109 12.966C52.6256 13.2768 52.302 13.5443 51.9403 13.7685C51.5836 13.9927 51.1938 14.1684 50.7709 14.2958C50.348 14.4181 49.8996 14.4792 49.4258 14.4792C48.9672 14.4792 48.529 14.4207 48.1112 14.3035C47.6985 14.1863 47.3113 14.0232 46.9495 13.8143C46.5877 13.6003 46.2591 13.3456 45.9636 13.05C45.6732 12.7494 45.4235 12.4182 45.2146 12.0565C45.0108 11.6896 44.8503 11.2973 44.7331 10.8795C44.621 10.4617 44.5649 10.026 44.5649 9.57255C44.5649 9.12927 44.6184 8.69617 44.7254 8.27327C44.8324 7.84527 44.9853 7.44275 45.184 7.0657C45.3878 6.68865 45.6324 6.34218 45.9177 6.02627C46.2031 5.71037 46.5215 5.43778 46.8731 5.20849C47.2297 4.97921 47.6144 4.80087 48.0271 4.67349C48.4399 4.54611 48.8755 4.48242 49.3341 4.48242C50.0729 4.48242 50.7454 4.59706 51.3518 4.82635C51.9632 5.05563 52.4829 5.38428 52.9109 5.81228C53.344 6.23518 53.6777 6.7498 53.9121 7.35613C54.1516 7.95736 54.2713 8.62993 54.2713 9.37384ZM50.8779 9.57255C50.8779 9.35346 50.8448 9.142 50.7786 8.9382C50.7174 8.72929 50.6257 8.54586 50.5034 8.38791C50.3811 8.22486 50.2283 8.09494 50.0449 7.99813C49.8665 7.89622 49.6602 7.84527 49.4258 7.84527C49.1863 7.84527 48.9723 7.88858 48.7838 7.9752C48.5953 8.06182 48.4322 8.18155 48.2946 8.33441C48.1622 8.48217 48.0603 8.65796 47.9889 8.86177C47.9176 9.06048 47.8819 9.27193 47.8819 9.49612C47.8819 9.71012 47.9125 9.92412 47.9736 10.1381C48.0348 10.3521 48.1265 10.5457 48.2488 10.719C48.3711 10.8922 48.5214 11.0323 48.6997 11.1393C48.8831 11.2463 49.0946 11.2998 49.3341 11.2998C49.5735 11.2998 49.7875 11.254 49.9761 11.1623C50.1697 11.0655 50.3327 10.9381 50.4652 10.7801C50.5977 10.6171 50.6996 10.4311 50.7709 10.2222C50.8423 10.0133 50.8779 9.79674 50.8779 9.57255Z" fill="black"/>
<path d="M44.9157 9.37384C44.9157 9.8375 44.8622 10.2859 44.7552 10.719C44.6482 11.147 44.4928 11.5495 44.289 11.9265C44.0903 12.3036 43.8458 12.6501 43.5553 12.966C43.27 13.2768 42.9464 13.5443 42.5847 13.7685C42.228 13.9927 41.8382 14.1684 41.4153 14.2958C40.9924 14.4181 40.544 14.4792 40.0702 14.4792C39.6116 14.4792 39.1734 14.4207 38.7556 14.3035C38.3429 14.1863 37.9557 14.0232 37.5939 13.8143C37.2322 13.6003 36.9035 13.3456 36.608 13.05C36.3176 12.7494 36.0679 12.4182 35.859 12.0565C35.6552 11.6896 35.4947 11.2973 35.3775 10.8795C35.2654 10.4617 35.2094 10.026 35.2094 9.57255C35.2094 9.12927 35.2629 8.69617 35.3699 8.27327C35.4768 7.84527 35.6297 7.44275 35.8284 7.0657C36.0322 6.68865 36.2768 6.34218 36.5621 6.02627C36.8475 5.71037 37.1659 5.43778 37.5175 5.20849C37.8742 4.97921 38.2588 4.80087 38.6716 4.67349C39.0843 4.54611 39.5199 4.48242 39.9785 4.48242C40.7173 4.48242 41.3899 4.59706 41.9962 4.82635C42.6076 5.05563 43.1273 5.38428 43.5553 5.81228C43.9884 6.23518 44.3222 6.7498 44.5565 7.35613C44.796 7.95736 44.9157 8.62993 44.9157 9.37384ZM41.5223 9.57255C41.5223 9.35346 41.4892 9.142 41.423 8.9382C41.3618 8.72929 41.2701 8.54586 41.1478 8.38791C41.0255 8.22486 40.8727 8.09494 40.6893 7.99813C40.5109 7.89622 40.3046 7.84527 40.0702 7.84527C39.8307 7.84527 39.6167 7.88858 39.4282 7.9752C39.2397 8.06182 39.0766 8.18155 38.9391 8.33441C38.8066 8.48217 38.7047 8.65796 38.6333 8.86177C38.562 9.06048 38.5263 9.27193 38.5263 9.49612C38.5263 9.71012 38.5569 9.92412 38.6181 10.1381C38.6792 10.3521 38.7709 10.5457 38.8932 10.719C39.0155 10.8922 39.1658 11.0323 39.3441 11.1393C39.5276 11.2463 39.739 11.2998 39.9785 11.2998C40.218 11.2998 40.432 11.254 40.6205 11.1623C40.8141 11.0655 40.9771 10.9381 41.1096 10.7801C41.2421 10.6171 41.344 10.4311 41.4153 10.2222C41.4867 10.0133 41.5223 9.79674 41.5223 9.57255Z" fill="black"/>
<path d="M35.9808 3.84082L35.9043 7.08138L33.6268 7.1731L33.0459 14.4185L29.8206 14.5866L29.8359 7.34124L27.5583 7.46352L27.6501 3.85611L35.9808 3.84082Z" fill="black"/>
</svg>
