<svg width="110" height="110" viewBox="0 0 110 110" fill="none" xmlns="http://www.w3.org/2000/svg">
<circle cx="55.4553" cy="55.4265" r="52.4851" fill="#F7F7FA" stroke="#E8E8ED" stroke-width="4"/>
<path d="M34.0518 39.2384L36.0683 24.2588L43.2702 32.1892L51.3363 17.2096L60.2667 29.8394C67.9487 25.4337 82.2824 14.5186 82.2824 14.5186L79.1473 34.8435L100.309 45.9939L78.1274 49.2247L91.3789 74.4844L61.7071 67.4352L64.2998 85.0582L45.2868 65.0854L30.883 77.1278V63.9106L13.3104 66.2603L26.2738 49.2247L15.3269 37.7698L34.0518 39.2384Z" fill="#E8E8ED"/>
<path d="M30.9771 52.9629H76.4639L72.639 91.9344H35.567L30.9771 52.9629Z" fill="#F5D4BC"/>
<rect x="51.4026" y="52.9629" width="4.63602" height="38.9714" fill="#D4AF95"/>
<mask id="mask0_2004_12290" style="mask-type:alpha" maskUnits="userSpaceOnUse" x="30" y="52" width="47" height="40">
<path d="M30.9771 52.9629H76.4639L72.639 91.9344H35.567L30.9771 52.9629Z" fill="#FF903F"/>
</mask>
<g mask="url(#mask0_2004_12290)">
<rect x="75.8206" y="64.0674" width="5.25795" height="44.1995" transform="rotate(90 75.8206 64.0674)" fill="#D4AF95"/>
</g>
<path d="M51.0505 36.0498L39.0489 43.8609L51.4053 52.96H53.6143L51.0505 36.0498Z" fill="#D4AF95"/>
<path d="M55.4613 33.6542L53.3497 55.6452L56.0402 52.966L63.7007 37.4574L55.4613 33.6542Z" fill="#D4AF95"/>
<path d="M49.4146 26.0498C49.4146 26.7633 49.2896 27.3805 49.0396 27.9014C48.7948 28.417 48.4563 28.8441 48.024 29.1826C47.5969 29.516 47.0943 29.7633 46.5162 29.9248C45.9433 30.0811 45.3261 30.1592 44.6646 30.1592C44.4094 30.1592 44.1282 30.1253 43.8209 30.0576C43.5188 29.9899 43.2115 29.9066 42.899 29.8076C42.5865 29.7035 42.2844 29.5941 41.9928 29.4795C41.7063 29.3597 41.4511 29.2477 41.2271 29.1436L41.5709 26.0811C42.0136 26.3467 42.5032 26.5498 43.0396 26.6904C43.5813 26.8258 44.1125 26.8936 44.6334 26.8936C44.7323 26.8936 44.8521 26.891 44.9928 26.8857C45.1334 26.8753 45.2662 26.8519 45.3912 26.8154C45.5214 26.7738 45.6308 26.7139 45.7193 26.6357C45.8079 26.5576 45.8521 26.4456 45.8521 26.2998C45.8521 26.2008 45.8209 26.1175 45.7584 26.0498C45.6959 25.9769 45.6152 25.9196 45.5162 25.8779C45.4172 25.8311 45.3053 25.7972 45.1803 25.7764C45.0553 25.7503 44.9329 25.7321 44.8131 25.7217C44.6933 25.7113 44.5813 25.7061 44.4771 25.7061C44.373 25.7061 44.2896 25.7061 44.2271 25.7061C43.7792 25.7061 43.3704 25.6357 43.0006 25.4951C42.636 25.3545 42.3209 25.1566 42.0553 24.9014C41.7948 24.641 41.5917 24.3285 41.4459 23.9639C41.3 23.5941 41.2271 23.1852 41.2271 22.7373C41.2271 22.1227 41.3495 21.5732 41.5943 21.0889C41.8443 20.5993 42.175 20.1852 42.5865 19.8467C43.0032 19.5029 43.4797 19.2399 44.0162 19.0576C44.5527 18.8753 45.1073 18.7842 45.6803 18.7842C45.9355 18.7842 46.1985 18.7946 46.4693 18.8154C46.7402 18.8311 47.0084 18.8623 47.274 18.9092C47.5448 18.9561 47.8079 19.016 48.0631 19.0889C48.3183 19.1618 48.5605 19.2529 48.7896 19.3623L48.4928 22.5342C48.1386 22.4144 47.7662 22.3154 47.3756 22.2373C46.9902 22.154 46.6125 22.1123 46.2428 22.1123C46.175 22.1123 46.0865 22.1149 45.9771 22.1201C45.873 22.1201 45.761 22.1279 45.6412 22.1436C45.5266 22.154 45.4094 22.1722 45.2896 22.1982C45.1698 22.2243 45.0631 22.2607 44.9693 22.3076C44.8756 22.3493 44.8 22.4066 44.7428 22.4795C44.6855 22.5524 44.6594 22.6383 44.6646 22.7373C44.6698 22.8519 44.7115 22.9404 44.7896 23.0029C44.873 23.0654 44.9771 23.1123 45.1021 23.1436C45.2323 23.1696 45.373 23.1826 45.524 23.1826C45.6803 23.1826 45.8339 23.18 45.9849 23.1748C46.136 23.1644 46.2766 23.1566 46.4068 23.1514C46.537 23.141 46.6438 23.1383 46.7271 23.1436C47.1438 23.1696 47.5188 23.2581 47.8521 23.4092C48.1855 23.5602 48.4667 23.7607 48.6959 24.0107C48.9303 24.2607 49.1073 24.5602 49.2271 24.9092C49.3521 25.2529 49.4146 25.6331 49.4146 26.0498ZM59.1846 29.3779L55.3096 29.8779L54.8409 28.1123H53.0596L52.669 29.8779L48.6846 29.4873L51.794 19.0811L56.1378 18.8623L59.1846 29.3779ZM54.5596 25.7217L53.9659 23.0029L53.3878 25.7217H54.5596ZM66.1734 19.0342L66.0953 22.3467L63.7671 22.4404L63.4859 29.6904L60.189 29.8623L59.8921 22.6123L57.564 22.7373L57.6578 19.0498L66.1734 19.0342Z" fill="#CECECE"/>
</svg>
