<svg width="109" height="109" viewBox="0 0 109 109" fill="none" xmlns="http://www.w3.org/2000/svg">
<circle cx="54.4851" cy="54.4851" r="52.4851" fill="#FFEBDC" stroke="#FF903F" stroke-width="4"/>
<path d="M33.0816 38.297L35.0981 23.3174L42.3 31.2478L50.3661 16.2682L59.2965 28.898C66.9785 24.4923 81.3122 13.5771 81.3122 13.5771L78.1771 33.9021L99.339 45.0525L77.1572 48.2833L90.4087 73.543L60.7369 66.4938L63.3295 84.1168L44.3165 64.144L29.9128 76.1864V62.9692L12.3401 65.3189L25.3036 48.2833L14.3567 36.8284L33.0816 38.297Z" fill="white"/>
<path d="M30.0069 52.0215H75.4937L71.6688 90.993H34.5968L30.0069 52.0215Z" fill="#FF903F"/>
<rect x="50.4324" y="52.0215" width="4.63602" height="38.9714" fill="black"/>
<mask id="mask0_2004_12248" style="mask-type:alpha" maskUnits="userSpaceOnUse" x="30" y="52" width="46" height="39">
<path d="M30.0069 52.0215H75.4937L71.6688 90.993H34.5968L30.0069 52.0215Z" fill="#FF903F"/>
</mask>
<g mask="url(#mask0_2004_12248)">
<rect x="74.8503" y="63.126" width="5.25795" height="44.1995" transform="rotate(90 74.8503 63.126)" fill="black"/>
</g>
<path d="M50.0803 35.1084L38.0787 42.9195L50.4351 52.0186H52.6441L50.0803 35.1084Z" fill="black"/>
<path d="M54.4911 32.7128L52.3796 54.7038L55.0701 52.0246L62.7306 36.516L54.4911 32.7128Z" fill="black"/>
<path d="M47.5382 18.0928L47.46 21.4053L45.1319 21.499L44.8507 28.749L41.5538 28.9209L41.2569 21.6709L38.9288 21.7959L39.0225 18.1084L47.5382 18.0928ZM56.7769 28.7959L52.8707 28.9834L52.8394 25.6865H51.0425L50.9332 29.1084H47.4332L47.73 18.124L51.4488 18.2959L51.2144 23.9053H52.9488L52.9644 18.0303L56.5269 18.124L56.7769 28.7959ZM66.3516 18.1084C66.1172 19.9417 65.9167 21.7673 65.75 23.585C65.5834 25.3975 65.4245 27.223 65.2735 29.0615L62.0704 29.2959L62.211 28.0928C62.1068 28.2126 61.9844 28.3167 61.8438 28.4053C61.7084 28.4938 61.5625 28.5667 61.4063 28.624C61.25 28.6761 61.0886 28.7152 60.9219 28.7412C60.7553 28.762 60.5964 28.7699 60.4454 28.7646C60.0912 28.7594 59.7579 28.6917 59.4454 28.5615C59.1329 28.4261 58.8464 28.249 58.586 28.0303C58.3256 27.8063 58.0912 27.5485 57.8829 27.2568C57.6745 26.96 57.4974 26.6501 57.3516 26.3271C57.211 25.999 57.1016 25.6657 57.0235 25.3271C56.9506 24.9886 56.9141 24.6605 56.9141 24.3428C56.9141 23.874 56.9219 23.3896 56.9375 22.8896C56.9584 22.3844 56.9922 21.8792 57.0391 21.374C57.086 20.8688 57.1459 20.3688 57.2188 19.874C57.2969 19.3792 57.3933 18.9053 57.5079 18.4521C58.1433 18.4834 58.7813 18.512 59.4219 18.5381C60.0625 18.5641 60.7006 18.5719 61.336 18.5615C61.2162 19.0146 61.0964 19.4704 60.9766 19.9287C60.862 20.3818 60.7579 20.8402 60.6641 21.3037C60.5704 21.762 60.4948 22.223 60.4375 22.6865C60.3803 23.1501 60.3516 23.6188 60.3516 24.0928C60.3516 24.2021 60.3568 24.3584 60.3672 24.5615C60.3776 24.7646 60.4037 24.9652 60.4454 25.1631C60.4922 25.361 60.5599 25.5355 60.6485 25.6865C60.7422 25.8324 60.8724 25.9053 61.0391 25.9053C61.237 25.9053 61.4141 25.8219 61.5704 25.6553C61.7266 25.4834 61.8646 25.2542 61.9844 24.9678C62.1042 24.6813 62.2058 24.3506 62.2891 23.9756C62.3776 23.6006 62.4506 23.21 62.5079 22.8037C62.5704 22.3923 62.6198 21.9782 62.6563 21.5615C62.6928 21.1449 62.7188 20.7542 62.7344 20.3896C62.7553 20.0199 62.7683 19.6891 62.7735 19.3975C62.7839 19.1058 62.7891 18.8792 62.7891 18.7178C62.7891 18.6136 62.7865 18.512 62.7813 18.4131C62.7761 18.3141 62.7683 18.2126 62.7579 18.1084C63.0964 18.1188 63.4323 18.1266 63.7657 18.1318C64.099 18.137 64.4349 18.1396 64.7735 18.1396C65.0339 18.1396 65.2943 18.1396 65.5547 18.1396C65.8204 18.1344 66.086 18.124 66.3516 18.1084Z" fill="black"/>
</svg>
