<svg width="141" height="144" viewBox="0 0 141 144" fill="none" xmlns="http://www.w3.org/2000/svg">
<path d="M0 19.2124L89.7233 -4.13544e-05L116.444 124.788L26.7208 144L0 19.2124Z" fill="#FF903F"/>
<path d="M52.4303 60.1399L54.9587 39.7091L64.0268 45.0564L74.1023 30.0947L87.4016 50.8154L112.904 26.4243L108.973 54.1457L135.506 69.3537L107.694 73.7603L124.309 108.212L90.3563 100.614V122.634L66.5171 95.3928L48.4571 111.818V93.7904L26.4238 96.9952L42.6778 73.7603L28.9522 58.1368L52.4303 60.1399Z" fill="white"/>
<path fill-rule="evenodd" clip-rule="evenodd" d="M44.299 43.8439C45.0607 44.1298 45.4464 44.979 45.1606 45.7406C42.8937 51.781 41.9354 58.1297 44.2371 63.9854C45.9456 68.3321 49.3238 70.7431 54.0037 71.3591C54.7561 71.4582 55.5027 71.5164 56.2426 71.5338C55.9462 69.9281 55.8126 68.2981 55.8632 66.6681C55.958 63.6149 56.8929 59.9866 58.6645 56.9495C60.4337 53.9165 63.1602 51.2821 66.9081 50.6542C69.523 50.2161 72.4422 51.0746 74.5809 52.7073C76.7437 54.3585 78.3276 56.994 77.7317 60.1498C77.234 62.7852 75.6825 65.0697 73.874 66.9234C72.0561 68.7867 69.8859 70.3104 67.9667 71.4235C65.4332 72.8928 62.7628 73.8315 59.9995 74.2435C61.9522 79.908 66.1147 85.0068 71.2061 87.9278C75.9861 90.67 81.6217 91.4395 87.249 91.2099C88.0619 91.1768 88.7477 91.8088 88.7809 92.6217C88.8141 93.4346 88.182 94.1204 87.3691 94.1536C81.4346 94.3958 75.1788 93.6035 69.7401 90.4832C63.8675 87.1141 59.0637 81.1558 56.976 74.4839C55.8681 74.4967 54.7482 74.4287 53.6192 74.2801C47.9876 73.5388 43.6351 70.5073 41.4952 65.0631C38.8117 58.2361 40.0174 51.0602 42.4023 44.7055C42.6881 43.9438 43.5373 43.5581 44.299 43.8439ZM59.2147 71.3785C61.7401 71.0499 64.1741 70.2173 66.4886 68.875C68.2533 67.8515 70.1876 66.483 71.7652 64.866C73.3521 63.2395 74.4868 61.4559 74.8367 59.6032C75.1683 57.8473 74.3477 56.2359 72.7932 55.0491C71.2145 53.8439 69.1037 53.2735 67.3949 53.5598C64.8167 53.9918 62.7228 55.8392 61.2093 58.4339C59.6983 61.0245 58.8883 64.1697 58.8079 66.7595C58.7601 68.3002 58.9034 69.8496 59.2147 71.3785Z" fill="black"/>
<path d="M120.128 34.012C120.474 33.5531 121.126 33.4613 121.585 33.8069L136.429 44.9862C136.888 45.3318 136.98 45.9839 136.634 46.4428L106.374 86.6231L89.8678 74.1923L120.128 34.012Z" fill="black"/>
<path d="M91.3758 90.6457C90.7205 90.8215 90.075 90.3328 90.0663 89.6544L89.8685 74.1925L106.374 86.6232L91.3758 90.6457Z" fill="black"/>
</svg>
