<svg width="202" height="36" viewBox="0 0 202 36" fill="none" xmlns="http://www.w3.org/2000/svg">
<path d="M201.136 30.4212C200.389 31.3589 199.467 32.1775 198.37 32.8768C197.274 33.5762 196.097 34.1563 194.842 34.6172C193.586 35.0781 192.299 35.4199 190.98 35.6424C189.66 35.8808 188.405 36 187.213 36C184.908 36 182.786 35.5868 180.847 34.7603C178.908 33.9338 177.231 32.7973 175.817 31.351C174.418 29.8887 173.321 28.1722 172.527 26.2013C171.732 24.2305 171.335 22.1086 171.335 19.8358C171.335 18.1033 171.533 16.4106 171.931 14.7576C172.328 13.0887 172.892 11.5232 173.623 10.0609C174.37 8.58278 175.276 7.23179 176.341 6.00795C177.406 4.76821 178.614 3.70331 179.965 2.81325C181.316 1.92318 182.794 1.23179 184.399 0.739073C186.005 0.246358 187.721 0 189.549 0C190.233 0 190.964 0.0317882 191.743 0.0953644C192.521 0.143047 193.292 0.238411 194.055 0.381458C194.834 0.50861 195.589 0.691391 196.32 0.929802C197.051 1.16821 197.719 1.46225 198.323 1.81192L197.655 10.9192C196.765 10.5854 195.843 10.3629 194.89 10.2517C193.952 10.1245 193.03 10.0609 192.124 10.0609C190.852 10.0609 189.66 10.2596 188.548 10.657C187.451 11.0384 186.49 11.5947 185.663 12.3258C184.852 13.057 184.209 13.947 183.732 14.996C183.255 16.045 183.017 17.2291 183.017 18.5483C183.017 19.3748 183.128 20.1775 183.35 20.9563C183.573 21.7192 183.907 22.4027 184.352 23.0066C184.813 23.5947 185.377 24.0715 186.045 24.4371C186.728 24.8027 187.515 24.9854 188.405 24.9854C189.009 24.9854 189.629 24.906 190.264 24.747C190.916 24.5881 191.472 24.3179 191.933 23.9364L192.029 22.0768L186.307 21.9815L186.593 14.8291C188.961 14.7497 191.329 14.6861 193.697 14.6384C196.066 14.5748 198.45 14.4954 200.85 14.4L201.136 30.4212Z" fill="black"/>
<path d="M172.645 18.453C172.645 19.8993 172.478 21.298 172.144 22.649C171.81 23.9841 171.325 25.2397 170.69 26.4159C170.07 27.5921 169.307 28.6728 168.401 29.6583C167.511 30.6278 166.501 31.4623 165.373 32.1616C164.26 32.8609 163.045 33.4093 161.725 33.8066C160.406 34.1881 159.007 34.3788 157.529 34.3788C156.099 34.3788 154.732 34.196 153.429 33.8305C152.141 33.4649 150.933 32.9563 149.805 32.3046C148.676 31.6371 147.651 30.8424 146.729 29.9205C145.823 28.9828 145.045 27.9497 144.393 26.8212C143.757 25.6768 143.256 24.453 142.891 23.1497C142.541 21.8464 142.366 20.4874 142.366 19.0728C142.366 17.6901 142.533 16.3391 142.867 15.0199C143.201 13.6848 143.678 12.4291 144.298 11.253C144.933 10.0768 145.696 8.99603 146.586 8.0106C147.476 7.02517 148.47 6.17483 149.566 5.4596C150.679 4.74437 151.879 4.18808 153.166 3.79073C154.454 3.39338 155.813 3.1947 157.243 3.1947C159.548 3.1947 161.646 3.55232 163.537 4.26755C165.445 4.98278 167.066 6.00795 168.401 7.34305C169.752 8.66225 170.793 10.2675 171.524 12.1589C172.271 14.0344 172.645 16.1325 172.645 18.453ZM162.059 19.0728C162.059 18.3894 161.956 17.7298 161.749 17.094C161.558 16.4424 161.272 15.8702 160.891 15.3775C160.509 14.8689 160.033 14.4636 159.46 14.1616C158.904 13.8437 158.26 13.6848 157.529 13.6848C156.782 13.6848 156.115 13.8199 155.527 14.0901C154.939 14.3603 154.43 14.7338 154.001 15.2106C153.588 15.6715 153.27 16.2199 153.047 16.8556C152.825 17.4755 152.713 18.1351 152.713 18.8344C152.713 19.502 152.809 20.1695 152.999 20.8371C153.19 21.5046 153.476 22.1086 153.858 22.649C154.239 23.1894 154.708 23.6265 155.264 23.9603C155.837 24.294 156.496 24.4609 157.243 24.4609C157.99 24.4609 158.658 24.3179 159.246 24.0318C159.85 23.7298 160.358 23.3325 160.772 22.8397C161.185 22.3311 161.503 21.751 161.725 21.0993C161.948 20.4477 162.059 19.7722 162.059 19.0728Z" fill="black"/>
<path d="M144.009 21.6954L143.008 32.2808L122.933 33.8543C123.029 28.3073 123.132 22.792 123.243 17.3086C123.37 11.8252 123.521 6.30993 123.696 0.762909H136.094C135.728 4.2437 135.378 7.7245 135.045 11.2053C134.711 14.6702 134.472 18.1669 134.329 21.6954C135.076 21.7271 135.816 21.743 136.547 21.743C137.278 21.743 138.017 21.743 138.764 21.743C139.654 21.743 140.528 21.7351 141.386 21.7192C142.245 21.7033 143.119 21.6954 144.009 21.6954Z" fill="black"/>
<path d="M115.468 1.09669L113.751 33.4252L101.258 34.5695L94.5828 17.2609L93.5338 34.9033H82.8054L83.6636 1.09669L95.5842 0.524506L103.833 17.6901L104.215 1.47815L115.468 1.09669Z" fill="black"/>
<path d="M83.3282 18.453C83.3282 19.8993 83.1613 21.298 82.8275 22.649C82.4937 23.9841 82.009 25.2397 81.3732 26.4159C80.7533 27.5921 79.9904 28.6728 79.0845 29.6583C78.1944 30.6278 77.1851 31.4623 76.0567 32.1616C74.9441 32.8609 73.7282 33.4093 72.409 33.8066C71.0898 34.1881 69.6911 34.3788 68.2129 34.3788C66.7825 34.3788 65.4156 34.196 64.1123 33.8305C62.8249 33.4649 61.6169 32.9563 60.4884 32.3046C59.36 31.6371 58.3348 30.8424 57.4129 29.9205C56.507 28.9828 55.7282 27.9497 55.0765 26.8212C54.4408 25.6768 53.9401 24.453 53.5745 23.1497C53.2249 21.8464 53.05 20.4874 53.05 19.0728C53.05 17.6901 53.2169 16.3391 53.5507 15.0199C53.8845 13.6848 54.3613 12.4291 54.9812 11.253C55.6169 10.0768 56.3798 8.99603 57.2699 8.0106C58.16 7.02517 59.1533 6.17483 60.25 5.4596C61.3626 4.74437 62.5626 4.18808 63.85 3.79073C65.1375 3.39338 66.4964 3.1947 67.9269 3.1947C70.2315 3.1947 72.3295 3.55232 74.2209 4.26755C76.1282 4.98278 77.7494 6.00795 79.0845 7.34305C80.4355 8.66225 81.4765 10.2675 82.2076 12.1589C82.9547 14.0344 83.3282 16.1325 83.3282 18.453ZM72.7427 19.0728C72.7427 18.3894 72.6394 17.7298 72.4328 17.094C72.2421 16.4424 71.956 15.8702 71.5745 15.3775C71.1931 14.8689 70.7163 14.4636 70.1441 14.1616C69.5878 13.8437 68.9441 13.6848 68.2129 13.6848C67.4659 13.6848 66.7984 13.8199 66.2103 14.0901C65.6222 14.3603 65.1136 14.7338 64.6845 15.2106C64.2712 15.6715 63.9533 16.2199 63.7308 16.8556C63.5083 17.4755 63.3971 18.1351 63.3971 18.8344C63.3971 19.502 63.4924 20.1695 63.6831 20.8371C63.8739 21.5046 64.16 22.1086 64.5414 22.649C64.9229 23.1894 65.3918 23.6265 65.948 23.9603C66.5202 24.294 67.1798 24.4609 67.9269 24.4609C68.6739 24.4609 69.3414 24.3179 69.9295 24.0318C70.5335 23.7298 71.0421 23.3325 71.4553 22.8397C71.8686 22.3311 72.1865 21.751 72.409 21.0993C72.6315 20.4477 72.7427 19.7722 72.7427 19.0728Z" fill="black"/>
<path d="M54.145 18.453C54.145 19.8993 53.9782 21.298 53.6444 22.649C53.3106 23.9841 52.8258 25.2397 52.1901 26.4159C51.5702 27.5921 50.8073 28.6728 49.9013 29.6583C49.0113 30.6278 48.002 31.4623 46.8735 32.1616C45.7609 32.8609 44.545 33.4093 43.2258 33.8066C41.9066 34.1881 40.508 34.3788 39.0298 34.3788C37.5993 34.3788 36.2325 34.196 34.9291 33.8305C33.6417 33.4649 32.4338 32.9563 31.3053 32.3046C30.1768 31.6371 29.1517 30.8424 28.2298 29.9205C27.3239 28.9828 26.545 27.9497 25.8934 26.8212C25.2576 25.6768 24.757 24.453 24.3914 23.1497C24.0417 21.8464 23.8669 20.4874 23.8669 19.0728C23.8669 17.6901 24.0338 16.3391 24.3676 15.0199C24.7013 13.6848 25.1782 12.4291 25.798 11.253C26.4338 10.0768 27.1967 8.99603 28.0868 8.0106C28.9768 7.02517 29.9702 6.17483 31.0669 5.4596C32.1795 4.74437 33.3795 4.18808 34.6669 3.79073C35.9543 3.39338 37.3133 3.1947 38.7437 3.1947C41.0484 3.1947 43.1464 3.55232 45.0378 4.26755C46.945 4.98278 48.5662 6.00795 49.9013 7.34305C51.2523 8.66225 52.2934 10.2675 53.0245 12.1589C53.7715 14.0344 54.145 16.1325 54.145 18.453ZM43.5596 19.0728C43.5596 18.3894 43.4563 17.7298 43.2497 17.094C43.059 16.4424 42.7729 15.8702 42.3914 15.3775C42.0099 14.8689 41.5331 14.4636 40.9609 14.1616C40.4046 13.8437 39.7609 13.6848 39.0298 13.6848C38.2828 13.6848 37.6152 13.8199 37.0272 14.0901C36.4391 14.3603 35.9305 14.7338 35.5013 15.2106C35.0881 15.6715 34.7702 16.2199 34.5477 16.8556C34.3252 17.4755 34.2139 18.1351 34.2139 18.8344C34.2139 19.502 34.3093 20.1695 34.5 20.8371C34.6907 21.5046 34.9768 22.1086 35.3583 22.649C35.7397 23.1894 36.2086 23.6265 36.7649 23.9603C37.3371 24.294 37.9967 24.4609 38.7437 24.4609C39.4907 24.4609 40.1583 24.3179 40.7464 24.0318C41.3503 23.7298 41.8589 23.3325 42.2722 22.8397C42.6854 22.3311 43.0033 21.751 43.2258 21.0993C43.4484 20.4477 43.5596 19.7722 43.5596 19.0728Z" fill="black"/>
<path d="M26.2727 1.19205L26.0343 11.3007L18.9296 11.5867L17.1177 34.1881L7.0568 34.7126L7.10448 12.1113L-0.000152588 12.4927L0.28594 1.23973L26.2727 1.19205Z" fill="black"/>
</svg>
