<svg width="96" height="100" viewBox="0 0 96 100" fill="none" xmlns="http://www.w3.org/2000/svg">
<path fill-rule="evenodd" clip-rule="evenodd" d="M6.23377 0C2.79095 0 0 2.79095 0 6.23376V28.1888C0 31.1024 2.01821 33.6274 4.86021 34.2694L68.8239 48.7183L67.633 60.0317C67.5177 61.1272 68.7756 61.823 69.6423 61.1432L81.7588 51.6402L88.3927 53.1387C92.2914 54.0194 96 51.0551 96 47.0582V6.23377C96 2.79095 93.209 0 89.7662 0H6.23377Z" fill="#FF903F"/>
<path fill-rule="evenodd" clip-rule="evenodd" d="M55.4806 87.2723C58.9234 87.2723 61.7143 84.4813 61.7143 81.0385L61.7143 59.1366C61.7143 56.1988 59.6631 53.6597 56.7909 53.0422L7.5442 42.4533C3.66245 41.6187 2.28882e-05 44.5773 2.28882e-05 48.5478V81.0389C2.28882e-05 84.4817 2.79101 87.2727 6.23384 87.2726L11.2885 87.2726L19.5454 98.8028C20.189 99.7014 21.597 99.3803 21.7872 98.2915L23.7126 87.2725L55.4806 87.2723Z" fill="#34C184"/>
</svg>
