<svg width="168" height="144" viewBox="0 0 168 144" fill="none" xmlns="http://www.w3.org/2000/svg">
<path d="M46.8753 36.9812L49.892 14.5716L60.6662 26.4355L72.7332 4.02588L86.0931 22.9202C97.5855 16.3292 119.029 0 119.029 0L114.339 30.4064L145.997 47.0875L112.813 51.9209L132.637 89.7096L88.2479 79.164L92.1266 105.528L63.6829 75.6487L42.1347 93.6643V73.8911L15.8458 77.4063L35.2392 51.9209L18.8625 34.7842L46.8753 36.9812Z" fill="#FF903F"/>
<path fill-rule="evenodd" clip-rule="evenodd" d="M151.141 18.7114C151.53 18.2301 151.456 17.5243 150.974 17.135L133.536 3.02882C133.055 2.63949 132.349 2.71404 131.959 3.19535L94.1125 49.9826C94.1125 49.9826 94.1125 49.9826 94.1125 49.9826C94.1125 49.9826 94.1125 49.9826 94.1125 49.9827L93.7053 68.5966C93.6893 69.3276 94.3662 69.878 95.0786 69.7131L112.918 65.5857C113.161 65.5293 113.379 65.393 113.537 65.1986L151.141 18.7114Z" fill="black"/>
<path d="M36.6382 16.2163C33.8611 23.616 32.5693 31.69 35.5453 39.2614C37.8428 45.1064 42.4579 48.3555 48.6137 49.1658C54.2573 49.9086 59.6701 48.8553 64.6323 45.9774C69.0308 43.4265 74.4337 39.0707 75.4456 33.7121C76.553 27.8476 69.7037 23.5706 64.5414 24.4355C56.9882 25.701 53.0306 35.1381 52.8214 41.8756C52.4886 52.5916 59.3236 63.4614 68.5073 68.7301C74.6077 72.2299 81.7067 73.1623 88.609 72.8807" stroke="black" stroke-width="3.36273" stroke-linecap="round"/>
<path d="M167.691 138.891C167.069 139.673 166.3 140.355 165.386 140.938C164.471 141.521 163.491 142.005 162.444 142.389C161.397 142.774 160.324 143.058 159.224 143.244C158.124 143.443 157.077 143.542 156.083 143.542C154.162 143.542 152.393 143.198 150.776 142.509C149.16 141.819 147.762 140.872 146.582 139.666C145.416 138.447 144.502 137.016 143.839 135.373C143.177 133.73 142.845 131.961 142.845 130.066C142.845 128.621 143.011 127.21 143.342 125.832C143.674 124.441 144.144 123.135 144.754 121.916C145.376 120.684 146.132 119.557 147.02 118.537C147.907 117.504 148.914 116.616 150.041 115.874C151.167 115.132 152.4 114.555 153.738 114.144C155.076 113.734 156.507 113.528 158.031 113.528C158.601 113.528 159.211 113.555 159.86 113.608C160.509 113.647 161.152 113.727 161.788 113.846C162.437 113.952 163.067 114.105 163.676 114.303C164.286 114.502 164.842 114.747 165.346 115.039L164.789 122.632C164.047 122.353 163.279 122.168 162.484 122.075C161.702 121.969 160.933 121.916 160.178 121.916C159.118 121.916 158.124 122.082 157.196 122.413C156.282 122.731 155.48 123.195 154.791 123.804C154.116 124.414 153.579 125.156 153.181 126.031C152.784 126.905 152.585 127.892 152.585 128.992C152.585 129.681 152.678 130.351 152.863 131C153.049 131.636 153.327 132.206 153.698 132.709C154.082 133.2 154.553 133.597 155.109 133.902C155.679 134.207 156.335 134.359 157.077 134.359C157.581 134.359 158.098 134.293 158.628 134.16C159.171 134.028 159.635 133.803 160.019 133.484L160.098 131.934L155.328 131.855L155.567 125.892C157.541 125.825 159.515 125.772 161.49 125.733C163.464 125.68 165.452 125.613 167.453 125.534L167.691 138.891Z" fill="black"/>
<path d="M143.937 128.913C143.937 130.119 143.798 131.285 143.52 132.411C143.242 133.524 142.837 134.571 142.307 135.552C141.791 136.532 141.154 137.433 140.399 138.255C139.657 139.063 138.816 139.759 137.875 140.342C136.947 140.925 135.934 141.382 134.834 141.713C133.734 142.031 132.568 142.191 131.335 142.191C130.143 142.191 129.003 142.038 127.917 141.733C126.843 141.429 125.836 141.005 124.895 140.461C123.954 139.905 123.1 139.242 122.331 138.474C121.576 137.692 120.927 136.83 120.383 135.89C119.853 134.935 119.436 133.915 119.131 132.829C118.839 131.742 118.694 130.609 118.694 129.43C118.694 128.277 118.833 127.15 119.111 126.051C119.389 124.937 119.787 123.891 120.304 122.91C120.834 121.929 121.47 121.028 122.212 120.207C122.954 119.385 123.782 118.676 124.697 118.08C125.624 117.484 126.625 117.02 127.698 116.689C128.771 116.357 129.904 116.192 131.097 116.192C133.018 116.192 134.767 116.49 136.344 117.086C137.934 117.682 139.286 118.537 140.399 119.65C141.526 120.75 142.393 122.088 143.003 123.665C143.626 125.229 143.937 126.978 143.937 128.913ZM135.112 129.43C135.112 128.86 135.026 128.31 134.854 127.78C134.695 127.237 134.456 126.759 134.138 126.349C133.82 125.925 133.422 125.587 132.945 125.335C132.482 125.07 131.945 124.937 131.335 124.937C130.713 124.937 130.156 125.05 129.666 125.275C129.175 125.501 128.751 125.812 128.394 126.21C128.049 126.594 127.784 127.051 127.599 127.581C127.413 128.098 127.32 128.648 127.32 129.231C127.32 129.787 127.4 130.344 127.559 130.9C127.718 131.457 127.956 131.961 128.274 132.411C128.592 132.862 128.983 133.226 129.447 133.504C129.924 133.783 130.474 133.922 131.097 133.922C131.72 133.922 132.276 133.803 132.766 133.564C133.27 133.312 133.694 132.981 134.039 132.57C134.383 132.146 134.648 131.662 134.834 131.119C135.019 130.576 135.112 130.013 135.112 129.43Z" fill="black"/>
<path d="M120.063 131.616L119.229 140.441L102.492 141.753C102.572 137.129 102.658 132.53 102.751 127.959C102.857 123.387 102.983 118.789 103.128 114.164H113.464C113.16 117.066 112.868 119.968 112.59 122.87C112.311 125.759 112.113 128.674 111.993 131.616C112.616 131.643 113.232 131.656 113.842 131.656C114.452 131.656 115.068 131.656 115.691 131.656C116.433 131.656 117.161 131.649 117.877 131.636C118.593 131.623 119.321 131.616 120.063 131.616Z" fill="black"/>
<path d="M96.2679 114.443L94.8367 141.395L84.4213 142.35L78.8558 127.919L77.9812 142.628H69.0367L69.7522 114.443L79.6906 113.965L86.568 128.277L86.886 114.761L96.2679 114.443Z" fill="black"/>
<path d="M69.4723 128.913C69.4723 130.119 69.3332 131.285 69.0549 132.411C68.7766 133.524 68.3724 134.571 67.8424 135.552C67.3256 136.532 66.6895 137.433 65.9342 138.255C65.1922 139.063 64.3507 139.759 63.4099 140.342C62.4823 140.925 61.4686 141.382 60.3687 141.713C59.2689 142.031 58.1028 142.191 56.8704 142.191C55.6778 142.191 54.5382 142.038 53.4516 141.733C52.3783 141.429 51.3712 141.005 50.4303 140.461C49.4895 139.905 48.6348 139.242 47.8662 138.474C47.1109 137.692 46.4616 136.83 45.9183 135.89C45.3883 134.935 44.9709 133.915 44.6661 132.829C44.3746 131.742 44.2288 130.609 44.2288 129.43C44.2288 128.277 44.3679 127.15 44.6462 126.051C44.9245 124.937 45.322 123.891 45.8388 122.91C46.3689 121.929 47.0049 121.028 47.747 120.207C48.489 119.385 49.3172 118.676 50.2316 118.08C51.1592 117.484 52.1596 117.02 53.233 116.689C54.3063 116.357 55.4393 116.192 56.6319 116.192C58.5533 116.192 60.3025 116.49 61.8794 117.086C63.4695 117.682 64.8211 118.537 65.9342 119.65C67.0606 120.75 67.9285 122.088 68.5381 123.665C69.1609 125.229 69.4723 126.978 69.4723 128.913ZM60.647 129.43C60.647 128.86 60.5609 128.31 60.3886 127.78C60.2296 127.237 59.9911 126.759 59.673 126.349C59.355 125.925 58.9575 125.587 58.4804 125.335C58.0166 125.07 57.48 124.937 56.8704 124.937C56.2476 124.937 55.6911 125.05 55.2008 125.275C54.7105 125.501 54.2864 125.812 53.9287 126.21C53.5841 126.594 53.3191 127.051 53.1336 127.581C52.9481 128.098 52.8553 128.648 52.8553 129.231C52.8553 129.787 52.9348 130.344 53.0938 130.9C53.2528 131.457 53.4914 131.961 53.8094 132.411C54.1274 132.862 54.5183 133.226 54.9821 133.504C55.4592 133.783 56.0091 133.922 56.6319 133.922C57.2547 133.922 57.8113 133.803 58.3015 133.564C58.8051 133.312 59.2291 132.981 59.5737 132.57C59.9182 132.146 60.1832 131.662 60.3687 131.119C60.5542 130.576 60.647 130.013 60.647 129.43Z" fill="black"/>
<path d="M45.1418 128.913C45.1418 130.119 45.0026 131.285 44.7243 132.411C44.4461 133.524 44.0419 134.571 43.5119 135.552C42.9951 136.532 42.359 137.433 41.6037 138.255C40.8616 139.063 40.0202 139.759 39.0793 140.342C38.1518 140.925 37.138 141.382 36.0382 141.713C34.9383 142.031 33.7722 142.191 32.5399 142.191C31.3473 142.191 30.2077 142.038 29.1211 141.733C28.0477 141.429 27.0406 141.005 26.0998 140.461C25.159 139.905 24.3043 139.242 23.5357 138.474C22.7804 137.692 22.1311 136.83 21.5878 135.89C21.0577 134.935 20.6403 133.915 20.3355 132.829C20.044 131.742 19.8983 130.609 19.8983 129.43C19.8983 128.277 20.0374 127.15 20.3157 126.051C20.5939 124.937 20.9915 123.891 21.5083 122.91C22.0383 121.929 22.6744 121.028 23.4164 120.207C24.1585 119.385 24.9867 118.676 25.901 118.08C26.8286 117.484 27.8291 117.02 28.9024 116.689C29.9758 116.357 31.1088 116.192 32.3014 116.192C34.2228 116.192 35.9719 116.49 37.5488 117.086C39.139 117.682 40.4906 118.537 41.6037 119.65C42.73 120.75 43.598 122.088 44.2075 123.665C44.8304 125.229 45.1418 126.978 45.1418 128.913ZM36.3165 129.43C36.3165 128.86 36.2303 128.31 36.0581 127.78C35.8991 127.237 35.6605 126.759 35.3425 126.349C35.0245 125.925 34.6269 125.587 34.1499 125.335C33.6861 125.07 33.1494 124.937 32.5399 124.937C31.9171 124.937 31.3605 125.05 30.8702 125.275C30.3799 125.501 29.9559 125.812 29.5981 126.21C29.2536 126.594 28.9886 127.051 28.803 127.581C28.6175 128.098 28.5248 128.648 28.5248 129.231C28.5248 129.787 28.6043 130.344 28.7633 130.9C28.9223 131.457 29.1608 131.961 29.4789 132.411C29.7969 132.862 30.1878 133.226 30.6516 133.504C31.1286 133.783 31.6786 133.922 32.3014 133.922C32.9242 133.922 33.4807 133.803 33.971 133.564C34.4746 133.312 34.8986 132.981 35.2431 132.57C35.5877 132.146 35.8527 131.662 36.0382 131.119C36.2237 130.576 36.3165 130.013 36.3165 129.43Z" fill="black"/>
<path d="M21.904 114.522L21.7053 122.95L15.782 123.188L14.2713 142.031L5.88334 142.469L5.9231 123.626L-0.000183105 123.944L0.238338 114.562L21.904 114.522Z" fill="black"/>
</svg>
