<svg width="151" height="108" viewBox="0 0 151 108" fill="none" xmlns="http://www.w3.org/2000/svg">
<path d="M35.9301 36.1908L39.0779 15.1532L50.494 24.258L65.0249 4.91783L80.6714 19.1074C93.7094 12.7538 117.846 0.422103 117.846 0.422103L112.893 28.9762L149.272 44.1051L111.436 49.1519L134.58 84.237L83.7422 75.0542L88.5221 99.6879L55.6396 72.1462L31.2685 89.3581L31.0059 70.8372L1.02793 74.5414L22.8388 50.3665L3.90737 34.5715L35.9301 36.1908Z" fill="#FF903F"/>
<path d="M41.5264 52.2373H101.106L93.928 108H48.7047L41.5264 52.2373Z" fill="black"/>
<path d="M37.2559 40.9722L102.429 30.7212L103.685 38.4425L38.5119 48.6934L37.2559 40.9722Z" fill="black"/>
<path d="M52.489 30.6572L83.898 25.717L85.154 33.4383L53.745 38.3785L52.489 30.6572Z" fill="black"/>
<path fill-rule="evenodd" clip-rule="evenodd" d="M60.1903 68.1191C60.785 68.1191 61.2671 68.5932 61.2671 69.1779L61.2671 90.3536C61.2671 90.9384 60.785 91.4124 60.1903 91.4124C59.5957 91.4124 59.1136 90.9384 59.1136 90.3536L59.1136 69.1779C59.1136 68.5932 59.5957 68.1191 60.1903 68.1191Z" fill="white"/>
<path fill-rule="evenodd" clip-rule="evenodd" d="M71.6757 68.1191C72.2704 68.1191 72.7524 68.5932 72.7524 69.1779L72.7524 90.3536C72.7524 90.9384 72.2704 91.4124 71.6757 91.4124C71.081 91.4124 70.5989 90.9384 70.5989 90.3536L70.5989 69.1779C70.5989 68.5932 71.081 68.1191 71.6757 68.1191Z" fill="white"/>
<path fill-rule="evenodd" clip-rule="evenodd" d="M83.161 68.1191C83.7557 68.1191 84.2378 68.5932 84.2378 69.1779L84.2378 90.3536C84.2378 90.9384 83.7557 91.4124 83.161 91.4124C82.5664 91.4124 82.0843 90.9384 82.0843 90.3536L82.0843 69.1779C82.0843 68.5932 82.5664 68.1191 83.161 68.1191Z" fill="white"/>
</svg>
