<svg width="110" height="109" viewBox="0 0 110 109" fill="none" xmlns="http://www.w3.org/2000/svg">
<circle cx="55.4553" cy="54.4851" r="52.4851" fill="#F7F7FA" stroke="#E8E8ED" stroke-width="4"/>
<path d="M34.0518 38.297L36.0683 23.3174L43.2702 31.2478L51.3363 16.2682L60.2667 28.898C67.9487 24.4923 82.2824 13.5771 82.2824 13.5771L79.1473 33.9021L100.309 45.0525L78.1274 48.2833L91.3789 73.543L61.7071 66.4938L64.2998 84.1168L45.2868 64.144L30.883 76.1864V62.9692L13.3104 65.3189L26.2738 48.2833L15.3269 36.8284L34.0518 38.297Z" fill="#E8E8ED"/>
<path d="M30.9771 52.0215H76.4639L72.639 90.993H35.567L30.9771 52.0215Z" fill="#F5D4BC"/>
<rect x="51.4026" y="52.0215" width="4.63602" height="38.9714" fill="#D4AF95"/>
<mask id="mask0_2004_12318" style="mask-type:alpha" maskUnits="userSpaceOnUse" x="30" y="52" width="47" height="39">
<path d="M30.9771 52.0215H76.4639L72.639 90.993H35.567L30.9771 52.0215Z" fill="#FF903F"/>
</mask>
<g mask="url(#mask0_2004_12318)">
<rect x="75.8206" y="63.126" width="5.25795" height="44.1995" transform="rotate(90 75.8206 63.126)" fill="#D4AF95"/>
</g>
<path d="M51.0505 35.1084L39.0489 42.9195L51.4053 52.0186H53.6143L51.0505 35.1084Z" fill="#D4AF95"/>
<path d="M55.4613 32.7128L53.3497 54.7038L56.0402 52.0246L63.7007 36.516L55.4613 32.7128Z" fill="#D4AF95"/>
<path d="M48.1334 25.1084C48.1334 25.8219 48.0084 26.4391 47.7584 26.96C47.5136 27.4756 47.175 27.9027 46.7428 28.2412C46.3157 28.5745 45.8131 28.8219 45.2349 28.9834C44.662 29.1396 44.0448 29.2178 43.3834 29.2178C43.1282 29.2178 42.8469 29.1839 42.5396 29.1162C42.2375 29.0485 41.9303 28.9652 41.6178 28.8662C41.3053 28.762 41.0032 28.6527 40.7115 28.5381C40.425 28.4183 40.1698 28.3063 39.9459 28.2021L40.2896 25.1396C40.7323 25.4053 41.2219 25.6084 41.7584 25.749C42.3 25.8844 42.8313 25.9521 43.3521 25.9521C43.4511 25.9521 43.5709 25.9495 43.7115 25.9443C43.8521 25.9339 43.9849 25.9105 44.1099 25.874C44.2402 25.8324 44.3495 25.7725 44.4381 25.6943C44.5266 25.6162 44.5709 25.5042 44.5709 25.3584C44.5709 25.2594 44.5396 25.1761 44.4771 25.1084C44.4146 25.0355 44.3339 24.9782 44.2349 24.9365C44.136 24.8896 44.024 24.8558 43.899 24.835C43.774 24.8089 43.6516 24.7907 43.5318 24.7803C43.412 24.7699 43.3 24.7646 43.1959 24.7646C43.0917 24.7646 43.0084 24.7646 42.9459 24.7646C42.498 24.7646 42.0891 24.6943 41.7193 24.5537C41.3547 24.4131 41.0396 24.2152 40.774 23.96C40.5136 23.6995 40.3105 23.387 40.1646 23.0225C40.0188 22.6527 39.9459 22.2438 39.9459 21.7959C39.9459 21.1813 40.0683 20.6318 40.3131 20.1475C40.5631 19.6579 40.8938 19.2438 41.3053 18.9053C41.7219 18.5615 42.1985 18.2985 42.7349 18.1162C43.2714 17.9339 43.8261 17.8428 44.399 17.8428C44.6542 17.8428 44.9172 17.8532 45.1881 17.874C45.4589 17.8896 45.7271 17.9209 45.9928 17.9678C46.2636 18.0146 46.5266 18.0745 46.7818 18.1475C47.037 18.2204 47.2792 18.3115 47.5084 18.4209L47.2115 21.5928C46.8573 21.473 46.4849 21.374 46.0943 21.2959C45.7089 21.2126 45.3313 21.1709 44.9615 21.1709C44.8938 21.1709 44.8053 21.1735 44.6959 21.1787C44.5917 21.1787 44.4797 21.1865 44.3599 21.2021C44.2454 21.2126 44.1282 21.2308 44.0084 21.2568C43.8886 21.2829 43.7818 21.3193 43.6881 21.3662C43.5943 21.4079 43.5188 21.4652 43.4615 21.5381C43.4042 21.611 43.3782 21.6969 43.3834 21.7959C43.3886 21.9105 43.4303 21.999 43.5084 22.0615C43.5917 22.124 43.6959 22.1709 43.8209 22.2021C43.9511 22.2282 44.0917 22.2412 44.2428 22.2412C44.399 22.2412 44.5527 22.2386 44.7037 22.2334C44.8547 22.223 44.9954 22.2152 45.1256 22.21C45.2558 22.1995 45.3625 22.1969 45.4459 22.2021C45.8625 22.2282 46.2375 22.3167 46.5709 22.4678C46.9042 22.6188 47.1855 22.8193 47.4146 23.0693C47.649 23.3193 47.8261 23.6188 47.9459 23.9678C48.0709 24.3115 48.1334 24.6917 48.1334 25.1084ZM57.4737 18.1084C57.2393 19.9417 57.0388 21.7673 56.8721 23.585C56.7055 25.3975 56.5466 27.223 56.3956 29.0615L53.1924 29.2959L53.3331 28.0928C53.2289 28.2126 53.1065 28.3167 52.9659 28.4053C52.8305 28.4938 52.6846 28.5667 52.5284 28.624C52.3721 28.6761 52.2107 28.7152 52.044 28.7412C51.8773 28.762 51.7185 28.7699 51.5674 28.7646C51.2133 28.7594 50.8799 28.6917 50.5674 28.5615C50.2549 28.4261 49.9685 28.249 49.7081 28.0303C49.4477 27.8063 49.2133 27.5485 49.0049 27.2568C48.7966 26.96 48.6195 26.6501 48.4737 26.3271C48.3331 25.999 48.2237 25.6657 48.1456 25.3271C48.0727 24.9886 48.0362 24.6605 48.0362 24.3428C48.0362 23.874 48.044 23.3896 48.0596 22.8896C48.0805 22.3844 48.1143 21.8792 48.1612 21.374C48.2081 20.8688 48.268 20.3688 48.3409 19.874C48.419 19.3792 48.5154 18.9053 48.6299 18.4521C49.2654 18.4834 49.9034 18.512 50.544 18.5381C51.1846 18.5641 51.8227 18.5719 52.4581 18.5615C52.3383 19.0146 52.2185 19.4704 52.0987 19.9287C51.9841 20.3818 51.8799 20.8402 51.7862 21.3037C51.6924 21.762 51.6169 22.223 51.5596 22.6865C51.5023 23.1501 51.4737 23.6188 51.4737 24.0928C51.4737 24.2021 51.4789 24.3584 51.4893 24.5615C51.4997 24.7646 51.5258 24.9652 51.5674 25.1631C51.6143 25.361 51.682 25.5355 51.7706 25.6865C51.8643 25.8324 51.9945 25.9053 52.1612 25.9053C52.3591 25.9053 52.5362 25.8219 52.6924 25.6553C52.8487 25.4834 52.9867 25.2542 53.1065 24.9678C53.2263 24.6813 53.3279 24.3506 53.4112 23.9756C53.4997 23.6006 53.5727 23.21 53.6299 22.8037C53.6924 22.3923 53.7419 21.9782 53.7784 21.5615C53.8148 21.1449 53.8409 20.7542 53.8565 20.3896C53.8773 20.0199 53.8904 19.6891 53.8956 19.3975C53.906 19.1058 53.9112 18.8792 53.9112 18.7178C53.9112 18.6136 53.9086 18.512 53.9034 18.4131C53.8982 18.3141 53.8904 18.2126 53.8799 18.1084C54.2185 18.1188 54.5544 18.1266 54.8878 18.1318C55.2211 18.137 55.557 18.1396 55.8956 18.1396C56.156 18.1396 56.4164 18.1396 56.6768 18.1396C56.9424 18.1344 57.2081 18.124 57.4737 18.1084ZM67.1578 25.1553C67.1578 25.7438 67.1499 26.3271 67.1343 26.9053C67.1239 27.4782 67.1057 28.0563 67.0796 28.6396L62.5796 28.5615C62.7359 27.6396 62.8713 26.7204 62.9859 25.8037C63.1005 24.8818 63.1578 23.9521 63.1578 23.0146C63.1578 22.9469 63.1552 22.8376 63.1499 22.6865C63.1447 22.5355 63.1343 22.3662 63.1187 22.1787C63.1031 21.986 63.0796 21.7907 63.0484 21.5928C63.0223 21.3896 62.9833 21.2048 62.9312 21.0381C62.8843 20.8714 62.8244 20.736 62.7515 20.6318C62.6838 20.5225 62.6005 20.4678 62.5015 20.4678C62.3244 20.4678 62.1734 20.5199 62.0484 20.624C61.9286 20.7282 61.827 20.8636 61.7437 21.0303C61.6656 21.1917 61.6031 21.374 61.5562 21.5771C61.5093 21.7803 61.4729 21.9834 61.4468 22.1865C61.426 22.3896 61.4104 22.5824 61.3999 22.7646C61.3947 22.9417 61.3921 23.0876 61.3921 23.2021C61.3661 24.124 61.3453 25.0407 61.3296 25.9521C61.314 26.8584 61.2932 27.7751 61.2671 28.7021L57.2828 28.874C57.3869 27.0355 57.4859 25.2074 57.5796 23.3896C57.6786 21.5719 57.7567 19.7438 57.814 17.9053L61.5015 17.7178L61.4703 18.9678C61.6161 18.7907 61.7723 18.624 61.939 18.4678C62.1109 18.3115 62.2932 18.1787 62.4859 18.0693C62.6786 17.9548 62.8817 17.8662 63.0953 17.8037C63.314 17.736 63.5432 17.7021 63.7828 17.7021C64.2255 17.7021 64.6135 17.7751 64.9468 17.9209C65.2802 18.0667 65.5666 18.2646 65.8062 18.5146C66.0458 18.7646 66.2463 19.0615 66.4078 19.4053C66.5692 19.7438 66.6994 20.1058 66.7984 20.4912C66.8973 20.8766 66.9729 21.2803 67.0249 21.7021C67.077 22.1188 67.1109 22.5303 67.1265 22.9365C67.1473 23.3428 67.1578 23.736 67.1578 24.1162C67.1578 24.4964 67.1578 24.8428 67.1578 25.1553Z" fill="#CECECE"/>
</svg>
