<svg width="78" height="80" viewBox="0 0 78 80" fill="none" xmlns="http://www.w3.org/2000/svg">
<path d="M0.517456 10.5415L49.7472 -5.35529e-05L64.4084 68.4689L15.1787 79.0104L0.517456 10.5415Z" fill="#C1C1C1"/>
<path d="M29.2851 32.9977L30.6724 21.7877L35.6479 24.7217L41.1762 16.5124L48.4733 27.8816L62.4659 14.4985L60.309 29.7088L74.8676 38.0532L59.6073 40.471L68.7239 59.3742L50.0945 55.2052V67.2871L37.0143 52.3405L27.105 61.3524V51.4612L15.0157 53.2197L23.9341 40.471L16.403 31.8987L29.2851 32.9977Z" fill="white"/>
<path fill-rule="evenodd" clip-rule="evenodd" d="M24.8236 24.0564C25.2415 24.2133 25.4531 24.6792 25.2963 25.0971C24.0525 28.4114 23.5267 31.8948 24.7896 35.1077C25.727 37.4927 27.5806 38.8156 30.1483 39.1536C30.5612 39.2079 30.9708 39.2399 31.3768 39.2494C31.2142 38.3684 31.1409 37.474 31.1686 36.5797C31.2206 34.9044 31.7336 32.9137 32.7057 31.2473C33.6764 29.5831 35.1724 28.1377 37.2288 27.7931C38.6635 27.5527 40.2653 28.0238 41.4387 28.9197C42.6254 29.8256 43.4945 31.2717 43.1675 33.0032C42.8945 34.4492 42.0432 35.7027 41.0509 36.7198C40.0534 37.7421 38.8627 38.5782 37.8096 39.1889C36.4195 39.9951 34.9543 40.5101 33.4382 40.7362C34.5096 43.8442 36.7935 46.6418 39.5871 48.2445C42.2097 49.7492 45.3019 50.1714 48.3895 50.0454C48.8355 50.0272 49.2119 50.374 49.2301 50.82C49.2483 51.266 48.9014 51.6424 48.4554 51.6606C45.1992 51.7934 41.7668 51.3587 38.7826 49.6467C35.5605 47.7981 32.9247 44.5289 31.7792 40.8681C31.1713 40.8751 30.5569 40.8378 29.9374 40.7563C26.8474 40.3496 24.4593 38.6862 23.2851 35.6991C21.8128 31.9532 22.4743 28.0159 23.7829 24.5292C23.9397 24.1112 24.4056 23.8996 24.8236 24.0564ZM33.0075 39.1642C34.3932 38.9839 35.7287 38.5271 36.9986 37.7906C37.9669 37.229 39.0282 36.4781 39.8938 35.5909C40.7645 34.6985 41.3871 33.7199 41.5791 32.7033C41.761 31.7398 41.3108 30.8557 40.4578 30.2045C39.5917 29.5433 38.4335 29.2303 37.4959 29.3874C36.0813 29.6244 34.9324 30.6381 34.102 32.0617C33.2729 33.4831 32.8285 35.2089 32.7843 36.6298C32.7581 37.4752 32.8368 38.3254 33.0075 39.1642Z" fill="#6F6F6F"/>
<path d="M66.4254 18.6678C66.6176 18.4125 66.9805 18.3614 67.2358 18.5537L75.3677 24.678C75.623 24.8703 75.6741 25.2331 75.4819 25.4884L58.8833 47.5283L49.8268 40.7077L66.4254 18.6678Z" fill="#6F6F6F"/>
<path d="M50.6639 49.7328C50.2993 49.8306 49.9402 49.5588 49.9354 49.1813L49.827 40.7078L58.8834 47.5284L50.6639 49.7328Z" fill="#6F6F6F"/>
</svg>
