<svg width="28" height="27" viewBox="0 0 28 27" fill="none" xmlns="http://www.w3.org/2000/svg">
<path d="M17.9375 4.625C19.5175 4.625 20.3075 4.625 20.875 5.00419C21.1207 5.16835 21.3316 5.37929 21.4958 5.62497C21.875 6.19247 21.875 6.98248 21.875 8.5625V19.25C21.875 21.3713 21.875 22.432 21.216 23.091C20.557 23.75 19.4963 23.75 17.375 23.75H10.625C8.50368 23.75 7.44302 23.75 6.78401 23.091C6.125 22.432 6.125 21.3713 6.125 19.25V8.5625C6.125 6.98248 6.125 6.19247 6.50419 5.62497C6.66835 5.37929 6.87929 5.16835 7.12497 5.00419C7.69247 4.625 8.48248 4.625 10.0625 4.625" stroke="#A9ABB8" stroke-width="2"/>
<path d="M10.625 4.625C10.625 3.38236 11.6324 2.375 12.875 2.375H15.125C16.3676 2.375 17.375 3.38236 17.375 4.625C17.375 5.86764 16.3676 6.875 15.125 6.875H12.875C11.6324 6.875 10.625 5.86764 10.625 4.625Z" stroke="#A9ABB8" stroke-width="2"/>
<path d="M10.625 12.5L17.375 12.5" stroke="#A9ABB8" stroke-width="2" stroke-linecap="round"/>
<path d="M10.625 17L15.125 17" stroke="#A9ABB8" stroke-width="2" stroke-linecap="round"/>
</svg>
