<svg width="218" height="217" viewBox="0 0 218 217" fill="none" xmlns="http://www.w3.org/2000/svg">
<path d="M0 28.3564L132.427 -9.08542e-05L171.865 184.18L39.4384 212.536L0 28.3564Z" fill="#E5E9ED"/>
<path d="M13.3116 102.739L21.7931 93.9599L8.48154 85.6162L0 94.3957L13.3116 102.739Z" fill="#FED130"/>
<path d="M30.3007 180.572L20.2366 187.906L31.9656 199.252L42.0297 191.906L30.3007 180.572Z" fill="#34C184"/>
<path d="M141.105 24.9064L129.202 22.3789L135.979 7.7832L147.882 10.2997L141.105 24.9064Z" fill="#34C184"/>
<path d="M142.073 216.19L130.146 213.782L136.777 199.119L148.704 201.517L142.073 216.19Z" fill="#FED130"/>
<path d="M199.567 129.212L197.913 117.157L213.942 118.589L215.605 130.641L199.567 129.212Z" fill="#34C184"/>
<path d="M77.2738 98.6411L81.003 70.9391L94.3216 85.6049L109.238 57.9029L125.754 81.2595C139.96 73.1118 166.468 52.9263 166.468 52.9263L160.67 90.5136L199.805 111.134L158.784 117.109L183.29 163.822L128.417 150.786L133.212 183.377L98.0508 146.441L71.4136 168.711V144.268L38.9163 148.613L62.8897 117.109L42.6455 95.9252L77.2738 98.6411Z" fill="#FF903F"/>
<path fill-rule="evenodd" clip-rule="evenodd" d="M65.3829 64.7103C66.5071 65.1322 67.0764 66.3856 66.6545 67.5098C63.3086 76.4251 61.8943 85.7954 65.2915 94.4381C67.8132 100.854 72.7992 104.412 79.7064 105.321C80.817 105.467 81.9188 105.553 83.011 105.579C82.5734 103.209 82.3762 100.803 82.4509 98.3976C82.5909 93.8912 83.9708 88.5361 86.5855 84.0535C89.1967 79.577 93.2209 75.6887 98.7526 74.7619C102.612 74.1153 106.921 75.3825 110.077 77.7923C113.269 80.2293 115.607 84.1192 114.728 88.777C113.993 92.6666 111.703 96.0385 109.034 98.7744C106.351 101.524 103.148 103.773 100.315 105.416C96.5758 107.585 92.6344 108.97 88.556 109.578C91.438 117.939 97.5816 125.465 105.096 129.776C112.151 133.823 120.469 134.959 128.775 134.62C129.975 134.571 130.987 135.504 131.036 136.704C131.085 137.904 130.152 138.916 128.952 138.965C120.193 139.322 110.96 138.153 102.932 133.548C94.2649 128.575 87.1747 119.781 84.0934 109.933C82.4581 109.952 80.8053 109.852 79.139 109.632C70.827 108.538 64.4029 104.064 61.2445 96.0288C57.2839 85.9524 59.0634 75.3612 62.5834 65.982C63.0053 64.8578 64.2587 64.2884 65.3829 64.7103ZM87.3976 105.35C91.125 104.865 94.7174 103.636 98.1335 101.655C100.738 100.144 103.593 98.1244 105.921 95.7378C108.264 93.3371 109.938 90.7047 110.455 87.9702C110.944 85.3785 109.733 83.0002 107.439 81.2486C105.109 79.4698 101.993 78.628 99.4712 79.0505C95.6659 79.6881 92.5754 82.4148 90.3416 86.2444C88.1113 90.068 86.9159 94.7101 86.7972 98.5325C86.7266 100.806 86.9382 103.093 87.3976 105.35Z" fill="black"/>
<path d="M177.29 50.2156C177.808 49.5289 178.784 49.3914 179.47 49.9086L201.345 66.3829C202.032 66.9 202.169 67.876 201.652 68.5628L157.002 127.85L132.641 109.502L177.29 50.2156Z" fill="black"/>
<path d="M134.892 133.779C133.912 134.042 132.946 133.311 132.933 132.296L132.641 109.502L157.003 127.85L134.892 133.779Z" fill="black"/>
</svg>
