<svg width="110" height="110" viewBox="0 0 110 110" fill="none" xmlns="http://www.w3.org/2000/svg">
<circle cx="55.4553" cy="55.4558" r="52.4851" fill="#F7F7FA" stroke="#E8E8ED" stroke-width="4"/>
<path d="M34.0518 39.2677L36.0683 24.2881L43.2702 32.2185L51.3363 17.2389L60.2667 29.8687C67.9487 25.463 82.2824 14.5479 82.2824 14.5479L79.1473 34.8728L100.309 46.0232L78.1274 49.254L91.3789 74.5137L61.7071 67.4645L64.2998 85.0875L45.2868 65.1147L30.883 77.1571V63.9399L13.3104 66.2896L26.2738 49.254L15.3269 37.7991L34.0518 39.2677Z" fill="#E8E8ED"/>
<path d="M30.9771 52.9922H76.4639L72.639 91.9637H35.567L30.9771 52.9922Z" fill="#F5D4BC"/>
<rect x="51.4026" y="52.9922" width="4.63602" height="38.9714" fill="#D4AF95"/>
<mask id="mask0_2004_12178" style="mask-type:alpha" maskUnits="userSpaceOnUse" x="30" y="52" width="47" height="40">
<path d="M30.9771 52.9922H76.4639L72.639 91.9637H35.567L30.9771 52.9922Z" fill="#FF903F"/>
</mask>
<g mask="url(#mask0_2004_12178)">
<rect x="75.8206" y="64.0967" width="5.25795" height="44.1995" transform="rotate(90 75.8206 64.0967)" fill="#D4AF95"/>
</g>
<path d="M51.0505 36.0791L39.0489 43.8902L51.4053 52.9893H53.6143L51.0505 36.0791Z" fill="#D4AF95"/>
<path d="M55.4613 33.6835L53.3497 55.6745L56.0402 52.9953L63.7007 37.4867L55.4613 33.6835Z" fill="#D4AF95"/>
<path d="M49.4615 18.9072L49.3834 22.2197L47.0553 22.3135L46.4615 29.7197L43.1646 29.8916L43.1803 22.4854L40.8521 22.6104L40.9459 18.9229L49.4615 18.9072ZM58.7237 19.0791C58.4893 20.9124 58.2888 22.738 58.1221 24.5557C57.9555 26.3682 57.7966 28.1937 57.6456 30.0322L54.4424 30.2666L54.5831 29.0635C54.4789 29.1833 54.3565 29.2874 54.2159 29.376C54.0805 29.4645 53.9346 29.5374 53.7784 29.5947C53.6221 29.6468 53.4607 29.6859 53.294 29.7119C53.1273 29.7327 52.9685 29.7406 52.8174 29.7354C52.4633 29.7301 52.1299 29.6624 51.8174 29.5322C51.5049 29.3968 51.2185 29.2197 50.9581 29.001C50.6977 28.777 50.4633 28.5192 50.2549 28.2275C50.0466 27.9307 49.8695 27.6208 49.7237 27.2979C49.5831 26.9697 49.4737 26.6364 49.3956 26.2979C49.3227 25.9593 49.2862 25.6312 49.2862 25.3135C49.2862 24.8447 49.294 24.3604 49.3096 23.8604C49.3305 23.3551 49.3643 22.8499 49.4112 22.3447C49.4581 21.8395 49.518 21.3395 49.5909 20.8447C49.669 20.3499 49.7654 19.876 49.8799 19.4229C50.5154 19.4541 51.1534 19.4827 51.794 19.5088C52.4346 19.5348 53.0727 19.5426 53.7081 19.5322C53.5883 19.9854 53.4685 20.4411 53.3487 20.8994C53.2341 21.3525 53.1299 21.8109 53.0362 22.2744C52.9424 22.7327 52.8669 23.1937 52.8096 23.6572C52.7523 24.1208 52.7237 24.5895 52.7237 25.0635C52.7237 25.1729 52.7289 25.3291 52.7393 25.5322C52.7497 25.7354 52.7758 25.9359 52.8174 26.1338C52.8643 26.3317 52.932 26.5062 53.0206 26.6572C53.1143 26.8031 53.2445 26.876 53.4112 26.876C53.6091 26.876 53.7862 26.7926 53.9424 26.626C54.0987 26.4541 54.2367 26.2249 54.3565 25.9385C54.4763 25.652 54.5779 25.3213 54.6612 24.9463C54.7497 24.5713 54.8227 24.1807 54.8799 23.7744C54.9424 23.363 54.9919 22.9489 55.0284 22.5322C55.0648 22.1156 55.0909 21.7249 55.1065 21.3604C55.1273 20.9906 55.1404 20.6598 55.1456 20.3682C55.156 20.0765 55.1612 19.8499 55.1612 19.6885C55.1612 19.5843 55.1586 19.4827 55.1534 19.3838C55.1482 19.2848 55.1404 19.1833 55.1299 19.0791C55.4685 19.0895 55.8044 19.0973 56.1378 19.1025C56.4711 19.1077 56.807 19.1104 57.1456 19.1104C57.406 19.1104 57.6664 19.1104 57.9268 19.1104C58.1924 19.1051 58.4581 19.0947 58.7237 19.0791ZM67.3062 23.7666C67.3062 24.2197 67.2749 24.6729 67.2124 25.126C66.3218 25.1833 65.4364 25.277 64.5562 25.4072C63.676 25.5322 62.7958 25.6572 61.9156 25.7822C62.051 26.1572 62.2619 26.4567 62.5484 26.6807C62.84 26.9046 63.1864 27.0166 63.5874 27.0166C63.7958 27.0166 64.0223 26.9775 64.2671 26.8994C64.5171 26.8213 64.7645 26.7249 65.0093 26.6104C65.2541 26.4906 65.4885 26.363 65.7124 26.2275C65.9364 26.0921 66.1291 25.9697 66.2906 25.8604L65.9156 29.4072C65.7124 29.5635 65.4911 29.6963 65.2515 29.8057C65.0171 29.915 64.7723 30.0036 64.5171 30.0713C64.2619 30.139 64.0041 30.1885 63.7437 30.2197C63.4833 30.251 63.2281 30.2666 62.9781 30.2666C62.4624 30.2666 61.9911 30.1963 61.564 30.0557C61.1369 29.915 60.7489 29.7197 60.3999 29.4697C60.0562 29.2145 59.7541 28.915 59.4937 28.5713C59.2333 28.2275 59.0171 27.8525 58.8453 27.4463C58.6734 27.04 58.5432 26.6104 58.4546 26.1572C58.3661 25.7041 58.3218 25.2458 58.3218 24.7822C58.3218 24.2979 58.3661 23.8135 58.4546 23.3291C58.5432 22.8447 58.676 22.3786 58.8531 21.9307C59.0354 21.4827 59.2619 21.0687 59.5328 20.6885C59.8088 20.3031 60.1291 19.9671 60.4937 19.6807C60.8583 19.3942 61.2697 19.1702 61.7281 19.0088C62.1916 18.8473 62.702 18.7666 63.2593 18.7666C63.7229 18.7666 64.1447 18.8317 64.5249 18.9619C64.9104 19.0869 65.2515 19.264 65.5484 19.4932C65.8505 19.7171 66.1109 19.9854 66.3296 20.2979C66.5536 20.6104 66.7359 20.9541 66.8765 21.3291C67.0223 21.6989 67.1291 22.0921 67.1968 22.5088C67.2697 22.9202 67.3062 23.3395 67.3062 23.7666ZM64.1812 23.3604C64.1812 23.2145 64.1656 23.0661 64.1343 22.915C64.1031 22.7588 64.051 22.6182 63.9781 22.4932C63.9104 22.3682 63.8192 22.2666 63.7046 22.1885C63.59 22.1051 63.4468 22.0635 63.2749 22.0635C63.0666 22.0635 62.8817 22.1208 62.7203 22.2354C62.564 22.3447 62.4286 22.4854 62.314 22.6572C62.1994 22.8239 62.1057 23.0062 62.0328 23.2041C61.9598 23.402 61.9052 23.5843 61.8687 23.751L64.1812 23.5322V23.3604Z" fill="#CECECE"/>
</svg>
