<svg width="110" height="110" viewBox="0 0 110 110" fill="none" xmlns="http://www.w3.org/2000/svg">
<circle cx="55.4553" cy="55.4265" r="52.4851" fill="#F7F7FA" stroke="#E8E8ED" stroke-width="4"/>
<path d="M34.0518 39.2384L36.0683 24.2588L43.2702 32.1892L51.3363 17.2096L60.2667 29.8394C67.9487 25.4337 82.2824 14.5186 82.2824 14.5186L79.1473 34.8435L100.309 45.9939L78.1274 49.2247L91.3789 74.4844L61.7071 67.4352L64.2998 85.0582L45.2868 65.0854L30.883 77.1278V63.9106L13.3104 66.2603L26.2738 49.2247L15.3269 37.7698L34.0518 39.2384Z" fill="#E8E8ED"/>
<path d="M30.9771 52.9629H76.4639L72.639 91.9344H35.567L30.9771 52.9629Z" fill="#F5D4BC"/>
<rect x="51.4026" y="52.9629" width="4.63602" height="38.9714" fill="#D4AF95"/>
<mask id="mask0_2004_12206" style="mask-type:alpha" maskUnits="userSpaceOnUse" x="30" y="52" width="47" height="40">
<path d="M30.9771 52.9629H76.4639L72.639 91.9344H35.567L30.9771 52.9629Z" fill="#FF903F"/>
</mask>
<g mask="url(#mask0_2004_12206)">
<rect x="75.8206" y="64.0674" width="5.25795" height="44.1995" transform="rotate(90 75.8206 64.0674)" fill="#D4AF95"/>
</g>
<path d="M51.0505 36.0498L39.0489 43.8609L51.4053 52.96H53.6143L51.0505 36.0498Z" fill="#D4AF95"/>
<path d="M55.4613 33.6542L53.3497 55.6452L56.0402 52.966L63.7007 37.4574L55.4613 33.6542Z" fill="#D4AF95"/>
<path d="M52.149 19.2061L50.3209 30.0342L45.8834 30.1279L44.9303 24.5186L43.9771 29.7217L39.5396 29.8779L37.6959 19.2061L41.5709 18.8623L42.3521 25.3467L43.399 18.8623H46.4459L47.6646 25.4248L48.2896 18.8623L52.149 19.2061ZM60.5909 23.7373C60.5909 24.1904 60.5596 24.6436 60.4971 25.0967C59.6065 25.154 58.7211 25.2477 57.8409 25.3779C56.9607 25.5029 56.0805 25.6279 55.2003 25.7529C55.3357 26.1279 55.5466 26.4274 55.8331 26.6514C56.1247 26.8753 56.4711 26.9873 56.8721 26.9873C57.0805 26.9873 57.307 26.9482 57.5518 26.8701C57.8018 26.792 58.0492 26.6956 58.294 26.5811C58.5388 26.4613 58.7732 26.3337 58.9971 26.1982C59.2211 26.0628 59.4138 25.9404 59.5753 25.8311L59.2003 29.3779C58.9971 29.5342 58.7758 29.667 58.5362 29.7764C58.3018 29.8857 58.057 29.9743 57.8018 30.042C57.5466 30.1097 57.2888 30.1592 57.0284 30.1904C56.768 30.2217 56.5128 30.2373 56.2628 30.2373C55.7471 30.2373 55.2758 30.167 54.8487 30.0264C54.4216 29.8857 54.0336 29.6904 53.6846 29.4404C53.3409 29.1852 53.0388 28.8857 52.7784 28.542C52.518 28.1982 52.3018 27.8232 52.1299 27.417C51.9581 27.0107 51.8279 26.5811 51.7393 26.1279C51.6508 25.6748 51.6065 25.2165 51.6065 24.7529C51.6065 24.2686 51.6508 23.7842 51.7393 23.2998C51.8279 22.8154 51.9607 22.3493 52.1378 21.9014C52.32 21.4535 52.5466 21.0394 52.8174 20.6592C53.0935 20.2738 53.4138 19.9378 53.7784 19.6514C54.143 19.3649 54.5544 19.141 55.0128 18.9795C55.4763 18.818 55.9867 18.7373 56.544 18.7373C57.0075 18.7373 57.4294 18.8024 57.8096 18.9326C58.195 19.0576 58.5362 19.2347 58.8331 19.4639C59.1352 19.6878 59.3956 19.9561 59.6143 20.2686C59.8383 20.5811 60.0206 20.9248 60.1612 21.2998C60.307 21.6696 60.4138 22.0628 60.4815 22.4795C60.5544 22.891 60.5909 23.3102 60.5909 23.7373ZM57.4659 23.3311C57.4659 23.1852 57.4503 23.0368 57.419 22.8857C57.3878 22.7295 57.3357 22.5889 57.2628 22.4639C57.195 22.3389 57.1039 22.2373 56.9893 22.1592C56.8747 22.0758 56.7315 22.0342 56.5596 22.0342C56.3513 22.0342 56.1664 22.0915 56.0049 22.2061C55.8487 22.3154 55.7133 22.4561 55.5987 22.6279C55.4841 22.7946 55.3904 22.9769 55.3174 23.1748C55.2445 23.3727 55.1898 23.555 55.1534 23.7217L57.4659 23.5029V23.3311ZM69.4781 23.8467C69.4781 24.5758 69.3843 25.2295 69.1968 25.8076C69.0093 26.3857 68.7463 26.8988 68.4078 27.3467C68.0744 27.7894 67.676 28.167 67.2124 28.4795C66.7489 28.792 66.2411 29.0498 65.689 29.2529C65.1369 29.4508 64.5484 29.5967 63.9234 29.6904C63.3036 29.7842 62.6656 29.8311 62.0093 29.8311C61.7645 29.8311 61.5249 29.8258 61.2906 29.8154C61.0562 29.7998 60.8166 29.779 60.5718 29.7529L60.7906 19.5811C61.3635 19.3988 61.952 19.2712 62.5562 19.1982C63.1656 19.1201 63.7697 19.0811 64.3687 19.0811C65.1135 19.0811 65.7984 19.1852 66.4234 19.3936C67.0484 19.6019 67.5874 19.9092 68.0406 20.3154C68.4937 20.7165 68.8453 21.2139 69.0953 21.8076C69.3505 22.3962 69.4781 23.0758 69.4781 23.8467ZM64.1656 26.8467C64.4781 26.7998 64.7619 26.7061 65.0171 26.5654C65.2775 26.4196 65.5015 26.2425 65.689 26.0342C65.8765 25.8206 66.0197 25.5811 66.1187 25.3154C66.2229 25.0446 66.2749 24.7581 66.2749 24.4561C66.2749 24.1592 66.2437 23.8831 66.1812 23.6279C66.1187 23.3675 66.0171 23.1436 65.8765 22.9561C65.7359 22.7633 65.551 22.6123 65.3218 22.5029C65.0927 22.3883 64.8114 22.3258 64.4781 22.3154L64.1656 26.8467Z" fill="#CECECE"/>
</svg>
