<svg width="109" height="109" viewBox="0 0 109 109" fill="none" xmlns="http://www.w3.org/2000/svg">
<circle cx="54.4851" cy="54.4851" r="52.4851" fill="#FFEBDC" stroke="#FF903F" stroke-width="4"/>
<path d="M33.0816 38.297L35.0981 23.3174L42.3 31.2478L50.3661 16.2682L59.2965 28.898C66.9785 24.4923 81.3122 13.5771 81.3122 13.5771L78.1771 33.9021L99.339 45.0525L77.1572 48.2833L90.4087 73.543L60.7369 66.4938L63.3295 84.1168L44.3165 64.144L29.9128 76.1864V62.9692L12.3401 65.3189L25.3036 48.2833L14.3567 36.8284L33.0816 38.297Z" fill="white"/>
<path d="M30.0069 52.0215H75.4937L71.6688 90.993H34.5968L30.0069 52.0215Z" fill="#FF903F"/>
<rect x="50.4324" y="52.0215" width="4.63602" height="38.9714" fill="black"/>
<mask id="mask0_2004_12164" style="mask-type:alpha" maskUnits="userSpaceOnUse" x="30" y="52" width="46" height="39">
<path d="M30.0069 52.0215H75.4937L71.6688 90.993H34.5968L30.0069 52.0215Z" fill="#FF903F"/>
</mask>
<g mask="url(#mask0_2004_12164)">
<rect x="74.8503" y="63.126" width="5.25795" height="44.1995" transform="rotate(90 74.8503 63.126)" fill="black"/>
</g>
<path d="M50.0803 35.1084L38.0787 42.9195L50.4351 52.0186H52.6441L50.0803 35.1084Z" fill="black"/>
<path d="M54.4911 32.7128L52.3796 54.7038L55.0701 52.0246L62.7306 36.516L54.4911 32.7128Z" fill="black"/>
<path d="M49.546 17.7178L48.8272 29.1865L45.2647 29.3428L45.296 23.2959L43.6866 28.1709H42.3116L41.0772 23.8115L41.0616 28.874L37.4522 28.9834L37.6085 18.1865L41.6241 18.0303L43.2179 23.2021L45.3429 17.7178H49.546ZM59.2066 23.124C59.2066 23.598 59.1519 24.0563 59.0425 24.499C58.9332 24.9365 58.7743 25.348 58.566 25.7334C58.3629 26.1188 58.1129 26.473 57.816 26.7959C57.5243 27.1136 57.1936 27.387 56.8238 27.6162C56.4592 27.8454 56.0608 28.0251 55.6285 28.1553C55.1962 28.2803 54.7379 28.3428 54.2535 28.3428C53.7847 28.3428 53.3368 28.2829 52.9097 28.1631C52.4879 28.0433 52.092 27.8766 51.7222 27.6631C51.3524 27.4443 51.0165 27.1839 50.7144 26.8818C50.4175 26.5745 50.1623 26.236 49.9488 25.8662C49.7405 25.4912 49.5764 25.0902 49.4566 24.6631C49.342 24.236 49.2847 23.7907 49.2847 23.3271C49.2847 22.874 49.3394 22.4313 49.4488 21.999C49.5582 21.5615 49.7144 21.1501 49.9175 20.7646C50.1259 20.3792 50.3759 20.0251 50.6675 19.7021C50.9592 19.3792 51.2847 19.1006 51.6441 18.8662C52.0087 18.6318 52.4019 18.4495 52.8238 18.3193C53.2457 18.1891 53.691 18.124 54.1597 18.124C54.9149 18.124 55.6024 18.2412 56.2222 18.4756C56.8472 18.71 57.3785 19.0459 57.816 19.4834C58.2587 19.9157 58.5998 20.4417 58.8394 21.0615C59.0842 21.6761 59.2066 22.3636 59.2066 23.124ZM55.7379 23.3271C55.7379 23.1032 55.704 22.887 55.6363 22.6787C55.5738 22.4652 55.48 22.2777 55.355 22.1162C55.23 21.9495 55.0738 21.8167 54.8863 21.7178C54.704 21.6136 54.4931 21.5615 54.2535 21.5615C54.0087 21.5615 53.7899 21.6058 53.5972 21.6943C53.4045 21.7829 53.2379 21.9053 53.0972 22.0615C52.9618 22.2126 52.8576 22.3923 52.7847 22.6006C52.7118 22.8037 52.6754 23.0199 52.6754 23.249C52.6754 23.4678 52.7066 23.6865 52.7691 23.9053C52.8316 24.124 52.9254 24.3219 53.0504 24.499C53.1754 24.6761 53.329 24.8193 53.5113 24.9287C53.6988 25.0381 53.9149 25.0928 54.1597 25.0928C54.4045 25.0928 54.6233 25.0459 54.816 24.9521C55.0139 24.8532 55.1806 24.723 55.316 24.5615C55.4514 24.3949 55.5556 24.2048 55.6285 23.9912C55.7014 23.7777 55.7379 23.5563 55.7379 23.3271ZM68.875 25.1553C68.875 25.7438 68.8672 26.3271 68.8516 26.9053C68.8412 27.4782 68.823 28.0563 68.7969 28.6396L64.2969 28.5615C64.4532 27.6396 64.5886 26.7204 64.7032 25.8037C64.8178 24.8818 64.875 23.9521 64.875 23.0146C64.875 22.9469 64.8724 22.8376 64.8672 22.6865C64.862 22.5355 64.8516 22.3662 64.836 22.1787C64.8204 21.986 64.7969 21.7907 64.7657 21.5928C64.7396 21.3896 64.7006 21.2048 64.6485 21.0381C64.6016 20.8714 64.5417 20.736 64.4688 20.6318C64.4011 20.5225 64.3178 20.4678 64.2188 20.4678C64.0417 20.4678 63.8907 20.5199 63.7657 20.624C63.6459 20.7282 63.5443 20.8636 63.461 21.0303C63.3829 21.1917 63.3204 21.374 63.2735 21.5771C63.2266 21.7803 63.1901 21.9834 63.1641 22.1865C63.1433 22.3896 63.1276 22.5824 63.1172 22.7646C63.112 22.9417 63.1094 23.0876 63.1094 23.2021C63.0834 24.124 63.0625 25.0407 63.0469 25.9521C63.0313 26.8584 63.0105 27.7751 62.9844 28.7021L59 28.874C59.1042 27.0355 59.2032 25.2074 59.2969 23.3896C59.3959 21.5719 59.474 19.7438 59.5313 17.9053L63.2188 17.7178L63.1875 18.9678C63.3334 18.7907 63.4896 18.624 63.6563 18.4678C63.8282 18.3115 64.0105 18.1787 64.2032 18.0693C64.3959 17.9548 64.599 17.8662 64.8125 17.8037C65.0313 17.736 65.2605 17.7021 65.5 17.7021C65.9428 17.7021 66.3308 17.7751 66.6641 17.9209C66.9974 18.0667 67.2839 18.2646 67.5235 18.5146C67.7631 18.7646 67.9636 19.0615 68.125 19.4053C68.2865 19.7438 68.4167 20.1058 68.5157 20.4912C68.6146 20.8766 68.6901 21.2803 68.7422 21.7021C68.7943 22.1188 68.8282 22.5303 68.8438 22.9365C68.8646 23.3428 68.875 23.736 68.875 24.1162C68.875 24.4964 68.875 24.8428 68.875 25.1553Z" fill="black"/>
</svg>
