<svg width="109" height="110" viewBox="0 0 109 110" fill="none" xmlns="http://www.w3.org/2000/svg">
<circle cx="54.4851" cy="55.4265" r="52.4851" fill="#FFEBDC" stroke="#FF903F" stroke-width="4"/>
<path d="M33.0816 39.2384L35.0981 24.2588L42.3 32.1892L50.3661 17.2096L59.2965 29.8394C66.9785 25.4337 81.3122 14.5186 81.3122 14.5186L78.1771 34.8435L99.339 45.9939L77.1572 49.2247L90.4087 74.4844L60.7369 67.4352L63.3295 85.0582L44.3165 65.0854L29.9128 77.1278V63.9106L12.3401 66.2603L25.3036 49.2247L14.3567 37.7698L33.0816 39.2384Z" fill="white"/>
<path d="M30.0069 52.9629H75.4937L71.6688 91.9344H34.5968L30.0069 52.9629Z" fill="#FF903F"/>
<rect x="50.4324" y="52.9629" width="4.63602" height="38.9714" fill="black"/>
<mask id="mask0_2004_12220" style="mask-type:alpha" maskUnits="userSpaceOnUse" x="30" y="52" width="46" height="40">
<path d="M30.0069 52.9629H75.4937L71.6688 91.9344H34.5968L30.0069 52.9629Z" fill="#FF903F"/>
</mask>
<g mask="url(#mask0_2004_12220)">
<rect x="74.8503" y="64.0674" width="5.25795" height="44.1995" transform="rotate(90 74.8503 64.0674)" fill="black"/>
</g>
<path d="M50.0803 36.0498L38.0787 43.8609L50.4351 52.96H52.6441L50.0803 36.0498Z" fill="black"/>
<path d="M54.4911 33.6542L52.3796 55.6452L55.0701 52.966L62.7306 37.4574L54.4911 33.6542Z" fill="black"/>
<path d="M51.1788 19.2061L49.3507 30.0342L44.9132 30.1279L43.96 24.5186L43.0069 29.7217L38.5694 29.8779L36.7257 19.2061L40.6007 18.8623L41.3819 25.3467L42.4288 18.8623H45.4757L46.6944 25.4248L47.3194 18.8623L51.1788 19.2061ZM59.6207 23.7373C59.6207 24.1904 59.5894 24.6436 59.5269 25.0967C58.6363 25.154 57.7509 25.2477 56.8707 25.3779C55.9905 25.5029 55.1102 25.6279 54.23 25.7529C54.3655 26.1279 54.5764 26.4274 54.8629 26.6514C55.1545 26.8753 55.5009 26.9873 55.9019 26.9873C56.1102 26.9873 56.3368 26.9482 56.5816 26.8701C56.8316 26.792 57.079 26.6956 57.3238 26.5811C57.5686 26.4613 57.803 26.3337 58.0269 26.1982C58.2509 26.0628 58.4436 25.9404 58.605 25.8311L58.23 29.3779C58.0269 29.5342 57.8056 29.667 57.566 29.7764C57.3316 29.8857 57.0868 29.9743 56.8316 30.042C56.5764 30.1097 56.3186 30.1592 56.0582 30.1904C55.7977 30.2217 55.5425 30.2373 55.2925 30.2373C54.7769 30.2373 54.3056 30.167 53.8785 30.0264C53.4514 29.8857 53.0634 29.6904 52.7144 29.4404C52.3707 29.1852 52.0686 28.8857 51.8082 28.542C51.5477 28.1982 51.3316 27.8232 51.1597 27.417C50.9879 27.0107 50.8576 26.5811 50.7691 26.1279C50.6806 25.6748 50.6363 25.2165 50.6363 24.7529C50.6363 24.2686 50.6806 23.7842 50.7691 23.2998C50.8576 22.8154 50.9905 22.3493 51.1675 21.9014C51.3498 21.4535 51.5764 21.0394 51.8472 20.6592C52.1233 20.2738 52.4436 19.9378 52.8082 19.6514C53.1727 19.3649 53.5842 19.141 54.0425 18.9795C54.5061 18.818 55.0165 18.7373 55.5738 18.7373C56.0373 18.7373 56.4592 18.8024 56.8394 18.9326C57.2248 19.0576 57.566 19.2347 57.8629 19.4639C58.1649 19.6878 58.4254 19.9561 58.6441 20.2686C58.8681 20.5811 59.0504 20.9248 59.191 21.2998C59.3368 21.6696 59.4436 22.0628 59.5113 22.4795C59.5842 22.891 59.6207 23.3102 59.6207 23.7373ZM56.4957 23.3311C56.4957 23.1852 56.48 23.0368 56.4488 22.8857C56.4175 22.7295 56.3655 22.5889 56.2925 22.4639C56.2248 22.3389 56.1337 22.2373 56.0191 22.1592C55.9045 22.0758 55.7613 22.0342 55.5894 22.0342C55.3811 22.0342 55.1962 22.0915 55.0347 22.2061C54.8785 22.3154 54.7431 22.4561 54.6285 22.6279C54.5139 22.7946 54.4201 22.9769 54.3472 23.1748C54.2743 23.3727 54.2196 23.555 54.1832 23.7217L56.4957 23.5029V23.3311ZM68.5079 23.8467C68.5079 24.5758 68.4141 25.2295 68.2266 25.8076C68.0391 26.3857 67.7761 26.8988 67.4375 27.3467C67.1042 27.7894 66.7058 28.167 66.2422 28.4795C65.7787 28.792 65.2709 29.0498 64.7188 29.2529C64.1667 29.4508 63.5782 29.5967 62.9532 29.6904C62.3334 29.7842 61.6954 29.8311 61.0391 29.8311C60.7943 29.8311 60.5547 29.8258 60.3204 29.8154C60.086 29.7998 59.8464 29.779 59.6016 29.7529L59.8204 19.5811C60.3933 19.3988 60.9818 19.2712 61.586 19.1982C62.1954 19.1201 62.7995 19.0811 63.3985 19.0811C64.1433 19.0811 64.8282 19.1852 65.4532 19.3936C66.0782 19.6019 66.6172 19.9092 67.0704 20.3154C67.5235 20.7165 67.875 21.2139 68.125 21.8076C68.3803 22.3962 68.5079 23.0758 68.5079 23.8467ZM63.1954 26.8467C63.5079 26.7998 63.7917 26.7061 64.0469 26.5654C64.3073 26.4196 64.5313 26.2425 64.7188 26.0342C64.9063 25.8206 65.0495 25.5811 65.1485 25.3154C65.2526 25.0446 65.3047 24.7581 65.3047 24.4561C65.3047 24.1592 65.2735 23.8831 65.211 23.6279C65.1485 23.3675 65.0469 23.1436 64.9063 22.9561C64.7657 22.7633 64.5808 22.6123 64.3516 22.5029C64.1224 22.3883 63.8412 22.3258 63.5079 22.3154L63.1954 26.8467Z" fill="black"/>
</svg>
