<svg width="164" height="148" viewBox="0 0 164 148" fill="none" xmlns="http://www.w3.org/2000/svg">
<path d="M110.364 93.7783L104.044 101.533L96.6496 96.374L78.9583 112.602L66.2721 92.1044L21.578 100.552L30.0338 80.6537L6.52229 61.0107L41.7177 61.0107L31.1237 20.3803L66.2721 40.7864L73.8328 10.6519L91.1537 40.7864L107.763 24.8887L113.027 47.193L134.337 40.7864L125.558 56.3053L157.59 61.0107L120.645 80.6537L143.342 100.552L110.364 93.7783Z" fill="#FF903F"/>
<path d="M137.253 112.342L108.442 132.298L76.2468 123.124L65.5779 81.0771C64.8163 78.0754 66.1826 74.9386 68.8994 73.4521C72.7768 71.3304 77.6154 73.4208 78.7281 77.6984L81.4121 88.0163L80.9472 63.322C80.8824 59.879 83.4339 56.9457 86.8527 56.5328C90.8882 56.0455 94.427 59.2292 94.3677 63.2936L94.029 86.4927L98.6592 60.3936C99.4364 56.0124 103.738 53.1866 108.068 54.2132C112.157 55.1829 114.726 59.2382 113.855 63.3498L108.267 89.7371L116.098 68.3296C117.718 63.9033 123.036 62.1376 126.981 64.7167C129.784 66.5489 130.987 70.0486 129.902 73.2164L118.034 107.889L128.277 100.033C131.872 97.2744 137.066 98.2454 139.423 102.116C141.52 105.562 140.569 110.045 137.253 112.342Z" fill="black"/>
<rect width="42.5664" height="11.8656" transform="matrix(-0.960825 -0.277157 -0.277157 0.960825 113.849 130.921)" fill="#5D5D5D"/>
<path d="M32.613 111.902L61.643 131.538L93.7349 122.007L103.937 79.8445C104.665 76.8345 103.264 73.7131 100.531 72.2567C96.6305 70.1782 91.8153 72.3221 90.7501 76.6118L88.1806 86.9588L88.3718 62.2608C88.3984 58.8174 85.8145 55.9125 82.3914 55.5376C78.3507 55.0951 74.8474 58.3178 74.9518 62.3813L75.5477 85.5752L70.6284 59.529C69.8027 55.1567 65.4698 52.3788 61.1519 53.4533C57.0736 54.4683 54.5499 58.5518 55.4662 62.6535L61.347 88.9772L53.2783 67.6579C51.6099 63.2498 46.272 61.5432 42.3559 64.1659C39.5739 66.029 38.4101 69.5418 39.5294 72.6974L51.7809 107.237L41.4522 99.494C37.8261 96.7757 32.6432 97.8043 30.3299 101.701C28.271 105.17 29.2719 109.642 32.613 111.902Z" fill="#FFDBC0"/>
<rect x="56.2218" y="130.221" width="42.5664" height="11.8656" transform="rotate(-16.7258 56.2218 130.221)" fill="#A9ABB8"/>
<path fill-rule="evenodd" clip-rule="evenodd" d="M54.0602 11.5743C54.3521 11.9229 54.3065 12.4425 53.9584 12.7348C51.1974 15.0532 48.9882 17.8815 48.4997 21.366C48.1371 23.9526 49.1179 26.0556 51.2247 27.6423C51.5635 27.8975 51.9105 28.1311 52.2656 28.343C52.5623 27.4795 52.9449 26.649 53.4171 25.8691C54.3015 24.4083 55.7525 22.8984 57.4479 21.9065C59.1411 20.9159 61.1904 20.3826 63.1856 21.1073C64.5775 21.613 65.7615 22.8337 66.3533 24.2169C66.9517 25.6156 66.9984 27.3346 65.842 28.7077C64.8764 29.8542 63.4946 30.5402 62.1061 30.9456C60.7104 31.3532 59.2366 31.4986 57.9976 31.5129C56.362 31.5319 54.8056 31.2548 53.3487 30.6956C52.7429 33.9911 53.3672 37.6187 55.0413 40.4411C56.6129 43.0908 59.1424 45.0151 61.9421 46.4506C62.3465 46.6579 62.5065 47.1543 62.2995 47.5593C62.0924 47.9643 61.5967 48.1245 61.1923 47.9172C58.2396 46.4033 55.4149 44.2974 53.6266 41.2825C51.6958 38.0271 50.9956 33.8045 51.8122 29.9813C51.2699 29.6829 50.744 29.3419 50.2357 28.9591C47.7005 27.0497 46.4161 24.3766 46.8703 21.1369C47.4398 17.0744 49.9965 13.9113 52.9012 11.4723C53.2494 11.18 53.7683 11.2256 54.0602 11.5743ZM53.7536 29.0846C55.072 29.6189 56.4844 29.8827 57.9785 29.8654C59.1178 29.8522 60.4343 29.7176 61.6454 29.3639C62.8638 29.0081 63.9054 28.4515 64.5842 27.6454C65.2276 26.8815 65.271 25.8711 64.8409 24.8657C64.4041 23.8448 63.5341 22.9866 62.6245 22.6562C61.252 22.1577 59.7265 22.4817 58.278 23.3291C56.8318 24.1752 55.5743 25.4842 54.8241 26.7233C54.3778 27.4605 54.0221 28.2545 53.7536 29.0846Z" fill="black"/>
</svg>
