<svg width="109" height="110" viewBox="0 0 109 110" fill="none" xmlns="http://www.w3.org/2000/svg">
<circle cx="54.4851" cy="55.4558" r="52.4851" fill="#FFEBDC" stroke="#FF903F" stroke-width="4"/>
<path d="M33.0816 39.2677L35.0981 24.2881L42.3 32.2185L50.3661 17.2389L59.2965 29.8687C66.9785 25.463 81.3122 14.5479 81.3122 14.5479L78.1771 34.8728L99.339 46.0232L77.1572 49.254L90.4087 74.5137L60.7369 67.4645L63.3295 85.0875L44.3165 65.1147L29.9128 77.1571V63.9399L12.3401 66.2896L25.3036 49.254L14.3567 37.7991L33.0816 39.2677Z" fill="white"/>
<path d="M30.0069 52.9922H75.4937L71.6688 91.9637H34.5968L30.0069 52.9922Z" fill="#FF903F"/>
<rect x="50.4324" y="52.9922" width="4.63602" height="38.9714" fill="black"/>
<mask id="mask0_2004_12192" style="mask-type:alpha" maskUnits="userSpaceOnUse" x="30" y="52" width="46" height="40">
<path d="M30.0069 52.9922H75.4937L71.6688 91.9637H34.5968L30.0069 52.9922Z" fill="#FF903F"/>
</mask>
<g mask="url(#mask0_2004_12192)">
<rect x="74.8503" y="64.0967" width="5.25795" height="44.1995" transform="rotate(90 74.8503 64.0967)" fill="black"/>
</g>
<path d="M50.0803 36.0791L38.0787 43.8902L50.4351 52.9893H52.6441L50.0803 36.0791Z" fill="black"/>
<path d="M54.4911 33.6835L52.3796 55.6745L55.0701 52.9953L62.7306 37.4867L54.4911 33.6835Z" fill="black"/>
<path d="M48.4913 18.9072L48.4132 22.2197L46.085 22.3135L45.4913 29.7197L42.1944 29.8916L42.21 22.4854L39.8819 22.6104L39.9757 18.9229L48.4913 18.9072ZM57.7535 19.0791C57.5191 20.9124 57.3186 22.738 57.1519 24.5557C56.9852 26.3682 56.8264 28.1937 56.6754 30.0322L53.4722 30.2666L53.6129 29.0635C53.5087 29.1833 53.3863 29.2874 53.2457 29.376C53.1102 29.4645 52.9644 29.5374 52.8082 29.5947C52.6519 29.6468 52.4905 29.6859 52.3238 29.7119C52.1571 29.7327 51.9983 29.7406 51.8472 29.7354C51.4931 29.7301 51.1597 29.6624 50.8472 29.5322C50.5347 29.3968 50.2483 29.2197 49.9879 29.001C49.7274 28.777 49.4931 28.5192 49.2847 28.2275C49.0764 27.9307 48.8993 27.6208 48.7535 27.2979C48.6129 26.9697 48.5035 26.6364 48.4254 26.2979C48.3524 25.9593 48.316 25.6312 48.316 25.3135C48.316 24.8447 48.3238 24.3604 48.3394 23.8604C48.3602 23.3551 48.3941 22.8499 48.441 22.3447C48.4879 21.8395 48.5477 21.3395 48.6207 20.8447C48.6988 20.3499 48.7951 19.876 48.9097 19.4229C49.5451 19.4541 50.1832 19.4827 50.8238 19.5088C51.4644 19.5348 52.1024 19.5426 52.7379 19.5322C52.6181 19.9854 52.4983 20.4411 52.3785 20.8994C52.2639 21.3525 52.1597 21.8109 52.066 22.2744C51.9722 22.7327 51.8967 23.1937 51.8394 23.6572C51.7821 24.1208 51.7535 24.5895 51.7535 25.0635C51.7535 25.1729 51.7587 25.3291 51.7691 25.5322C51.7795 25.7354 51.8056 25.9359 51.8472 26.1338C51.8941 26.3317 51.9618 26.5062 52.0504 26.6572C52.1441 26.8031 52.2743 26.876 52.441 26.876C52.6389 26.876 52.816 26.7926 52.9722 26.626C53.1285 26.4541 53.2665 26.2249 53.3863 25.9385C53.5061 25.652 53.6076 25.3213 53.691 24.9463C53.7795 24.5713 53.8524 24.1807 53.9097 23.7744C53.9722 23.363 54.0217 22.9489 54.0582 22.5322C54.0946 22.1156 54.1207 21.7249 54.1363 21.3604C54.1571 20.9906 54.1701 20.6598 54.1754 20.3682C54.1858 20.0765 54.191 19.8499 54.191 19.6885C54.191 19.5843 54.1884 19.4827 54.1832 19.3838C54.178 19.2848 54.1701 19.1833 54.1597 19.0791C54.4983 19.0895 54.8342 19.0973 55.1675 19.1025C55.5009 19.1077 55.8368 19.1104 56.1754 19.1104C56.4358 19.1104 56.6962 19.1104 56.9566 19.1104C57.2222 19.1051 57.4879 19.0947 57.7535 19.0791ZM66.336 23.7666C66.336 24.2197 66.3047 24.6729 66.2422 25.126C65.3516 25.1833 64.4662 25.277 63.586 25.4072C62.7058 25.5322 61.8256 25.6572 60.9454 25.7822C61.0808 26.1572 61.2917 26.4567 61.5782 26.6807C61.8698 26.9046 62.2162 27.0166 62.6172 27.0166C62.8256 27.0166 63.0521 26.9775 63.2969 26.8994C63.5469 26.8213 63.7943 26.7249 64.0391 26.6104C64.2839 26.4906 64.5183 26.363 64.7422 26.2275C64.9662 26.0921 65.1589 25.9697 65.3204 25.8604L64.9454 29.4072C64.7422 29.5635 64.5209 29.6963 64.2813 29.8057C64.0469 29.915 63.8021 30.0036 63.5469 30.0713C63.2917 30.139 63.0339 30.1885 62.7735 30.2197C62.5131 30.251 62.2579 30.2666 62.0079 30.2666C61.4922 30.2666 61.0209 30.1963 60.5938 30.0557C60.1667 29.915 59.7787 29.7197 59.4297 29.4697C59.086 29.2145 58.7839 28.915 58.5235 28.5713C58.2631 28.2275 58.0469 27.8525 57.875 27.4463C57.7032 27.04 57.573 26.6104 57.4844 26.1572C57.3959 25.7041 57.3516 25.2458 57.3516 24.7822C57.3516 24.2979 57.3959 23.8135 57.4844 23.3291C57.573 22.8447 57.7058 22.3786 57.8829 21.9307C58.0651 21.4827 58.2917 21.0687 58.5625 20.6885C58.8386 20.3031 59.1589 19.9671 59.5235 19.6807C59.8881 19.3942 60.2995 19.1702 60.7579 19.0088C61.2214 18.8473 61.7318 18.7666 62.2891 18.7666C62.7526 18.7666 63.1745 18.8317 63.5547 18.9619C63.9401 19.0869 64.2813 19.264 64.5782 19.4932C64.8803 19.7171 65.1407 19.9854 65.3594 20.2979C65.5834 20.6104 65.7657 20.9541 65.9063 21.3291C66.0521 21.6989 66.1589 22.0921 66.2266 22.5088C66.2995 22.9202 66.336 23.3395 66.336 23.7666ZM63.211 23.3604C63.211 23.2145 63.1954 23.0661 63.1641 22.915C63.1329 22.7588 63.0808 22.6182 63.0079 22.4932C62.9401 22.3682 62.849 22.2666 62.7344 22.1885C62.6198 22.1051 62.4766 22.0635 62.3047 22.0635C62.0964 22.0635 61.9115 22.1208 61.75 22.2354C61.5938 22.3447 61.4584 22.4854 61.3438 22.6572C61.2292 22.8239 61.1355 23.0062 61.0625 23.2041C60.9896 23.402 60.9349 23.5843 60.8985 23.751L63.211 23.5322V23.3604Z" fill="black"/>
</svg>
